999
dxfrw 0.6.3
  0
SECTION
  2
HEADER
  9
$ACADVER
  1
AC1021
  9
$DWGCODEPAGE
  3
ANSI_1252
  9
$INSBASE
 10
0
 20
0
 30
0
  9
$EXTMIN
 10
-10.43951508831662
 20
-3.446250219938902
 30
0
  9
$EXTMAX
 10
8.67848491168337
 20
6.907749780061097
 30
0
  9
$LIMMIN
 10
0
 20
0
  9
$LIMMAX
 10
12
 20
9
  9
$ORTHOMODE
 70
    0
  9
$REGENMODE
 70
    1
  9
$FILLMODE
 70
    1
  9
$QTEXTMODE
 70
    0
  9
$MIRRTEXT
 70
    1
  9
$LTSCALE
 40
1
  9
$ATTMODE
 70
    1
  9
$TEXTSIZE
 40
0.1377952756
  9
$TRACEWID
 40
0.05
  9
$TEXTSTYLE
  7
Standard
  9
$CLAYER
  8
DIM
  9
$CELTYPE
  6
ByLayer
  9
$CECOLOR
 62
  256
  9
$CELTSCALE
 40
1
  9
$DISPSILH
 70
    0
  9
$DIMSCALE
 40
1
  9
$DIMASZ
 40
0.13
  9
$DIMEXO
 40
0.0393700787
  9
$DIMDLI
 40
0.38
  9
$DIMRND
 40
0
  9
$DIMDLE
 40
0
  9
$DIMEXE
 40
0.0393700787
  9
$DIMTP
 40
0
  9
$DIMTM
 40
0
  9
$DIMTXT
 40
0.1377952756
  9
$DIMCEN
 40
0.09
  9
$DIMTSZ
 40
0
  9
$DIMTOL
 70
    0
  9
$DIMLIM
 70
    0
  9
$DIMTIH
 70
    1
  9
$DIMTOH
 70
    1
  9
$DIMSE1
 70
    0
  9
$DIMSE2
 70
    0
  9
$DIMTAD
 70
    1
  9
$DIMZIN
 70
    0
  9
$DIMBLK
  1

  9
$DIMASO
 70
    1
  9
$DIMSHO
 70
    1
  9
$DIMPOST
  1

  9
$DIMAPOST
  1

  9
$DIMALT
 70
    0
  9
$DIMALTD
 70
    2
  9
$DIMALTF
 40
25.4
  9
$DIMLFAC
 40
1
  9
$DIMTOFL
 70
    0
  9
$DIMTVP
 40
0
  9
$DIMTIX
 70
    0
  9
$DIMSOXD
 70
    0
  9
$DIMSAH
 70
    0
  9
$DIMBLK1
  1

  9
$DIMBLK2
  1

  9
$DIMSTYLE
  2
Standard
  9
$DIMCLRD
 70
    0
  9
$DIMCLRE
 70
    0
  9
$DIMCLRT
 70
    0
  9
$DIMTFAC
 40
1
  9
$DIMGAP
 40
0.06
  9
$DIMJUST
 70
    0
  9
$DIMSD1
 70
    0
  9
$DIMSD2
 70
    0
  9
$DIMTOLJ
 70
    1
  9
$DIMTZIN
 70
    0
  9
$DIMALTZ
 70
    0
  9
$DIMALTTZ
 70
    0
  9
$DIMUPT
 70
    0
  9
$DIMDEC
 70
    4
  9
$DIMTDEC
 70
    2
  9
$DIMALTU
 70
    2
  9
$DIMALTTD
 70
    2
  9
$DIMTXSTY
  7
Standard
  9
$DIMAUNIT
 70
    0
  9
$DIMADEC
 70
    0
  9
$DIMALTRND
 40
0
  9
$DIMAZIN
 70
    0
  9
$DIMDSEP
 70
   46
  9
$DIMATFIT
 70
    3
  9
$DIMFRAC
 70
    0
  9
$DIMLDRBLK
  1

  9
$DIMLUNIT
 70
    2
  9
$DIMLWD
 70
   -2
  9
$DIMLWE
 70
   -2
  9
$DIMTMOVE
 70
    0
  9
$DIMFXL
 40
1
  9
$DIMFXLON
 70
    0
  9
$DIMJOGANG
 40
0.7854
  9
$DIMTFILL
 70
    0
  9
$DIMTFILLCLR
 70
    0
  9
$DIMARCSYM
 70
    0
  9
$DIMLTYPE
  6

  9
$DIMLTEX1
  6

  9
$DIMLTEX2
  6

  9
$LUNITS
 70
    2
  9
$LUPREC
 70
    2
  9
$SKETCHINC
 40
0.1
  9
$FILLETRAD
 40
0.5
  9
$AUNITS
 70
    0
  9
$AUPREC
 70
    2
  9
$MENU
  1
.
  9
$ELEVATION
 40
0
  9
$PELEVATION
 40
0
  9
$THICKNESS
 40
0
  9
$LIMCHECK
 70
    0
  9
$CHAMFERA
 40
0
  9
$CHAMFERB
 40
0
  9
$CHAMFERC
 40
0
  9
$CHAMFERD
 40
0
  9
$SKPOLY
 70
    0
  9
$USRTIMER
 70
    1
  9
$ANGBASE
 50
0
  9
$ANGDIR
 70
    0
  9
$PDMODE
 70
    0
  9
$PDSIZE
 40
-1
  9
$PLINEWID
 40
0
  9
$SPLFRAME
 70
    0
  9
$SPLINETYPE
 70
    6
  9
$SPLINESEGS
 70
    8
  9
$HANDSEED
  5
20000
  9
$SURFTAB1
 70
    6
  9
$SURFTAB2
 70
    6
  9
$SURFTYPE
 70
    6
  9
$SURFU
 70
    6
  9
$SURFV
 70
    6
  9
$UCSBASE
  2

  9
$UCSNAME
  2

  9
$UCSORG
 10
0
 20
0
 30
0
  9
$UCSXDIR
 10
1
 20
0
 30
0
  9
$UCSYDIR
 10
0
 20
1
 30
0
  9
$UCSORTHOREF
  2

  9
$UCSORTHOVIEW
 70
    0
  9
$UCSORGTOP
 10
0
 20
0
 30
0
  9
$UCSORGBOTTOM
 10
0
 20
0
 30
0
  9
$UCSORGLEFT
 10
0
 20
0
 30
0
  9
$UCSORGRIGHT
 10
0
 20
0
 30
0
  9
$UCSORGFRONT
 10
0
 20
0
 30
0
  9
$UCSORGBACK
 10
0
 20
0
 30
0
  9
$PUCSBASE
  2

  9
$PUCSNAME
  2

  9
$PUCSORG
 10
0
 20
0
 30
0
  9
$PUCSXDIR
 10
1
 20
0
 30
0
  9
$PUCSYDIR
 10
0
 20
1
 30
0
  9
$PUCSORTHOREF
  2

  9
$PUCSORTHOVIEW
 70
    0
  9
$PUCSORGTOP
 10
0
 20
0
 30
0
  9
$PUCSORGBOTTOM
 10
0
 20
0
 30
0
  9
$PUCSORGLEFT
 10
0
 20
0
 30
0
  9
$PUCSORGRIGHT
 10
0
 20
0
 30
0
  9
$PUCSORGFRONT
 10
0
 20
0
 30
0
  9
$PUCSORGBACK
 10
0
 20
0
 30
0
  9
$USERI1
 70
    0
  9
$USERI2
 70
    0
  9
$USERI3
 70
    0
  9
$USERI4
 70
    0
  9
$USERI5
 70
    0
  9
$USERR1
 40
0
  9
$USERR2
 40
0
  9
$USERR3
 40
0
  9
$USERR4
 40
0
  9
$USERR5
 40
0
  9
$WORLDVIEW
 70
    1
  9
$SHADEDGE
 70
    3
  9
$SHADEDIF
 70
   70
  9
$TILEMODE
 70
    1
  9
$MAXACTVP
 70
   64
  9
$PINSBASE
 10
0
 20
0
 30
0
  9
$PLIMCHECK
 70
    0
  9
$PEXTMIN
 10
1e+20
 20
1e+20
 30
1e+20
  9
$PEXTMAX
 10
-1e+20
 20
-1e+20
 30
-1e+20
  9
$GRIDMODE
 70
    1
  9
$SNAPSTYLE
 70
    0
  9
$PLIMMIN
 10
0
 20
0
  9
$PLIMMAX
 10
12
 20
9
  9
$UNITMODE
 70
    0
  9
$VISRETAIN
 70
    1
  9
$PLINEGEN
 70
    0
  9
$PSLTSCALE
 70
    1
  9
$TREEDEPTH
 70
 3020
  9
$CMLSTYLE
  2
Standard
  9
$CMLJUST
 70
    0
  9
$CMLSCALE
 40
1
  9
$PROXYGRAPHICS
 70
    1
  9
$MEASUREMENT
 70
    0
  9
$CELWEIGHT
370
   -1
  9
$ENDCAPS
280
    0
  9
$JOINSTYLE
280
    0
  9
$LWDISPLAY
290
    1
  9
$INSUNITS
 70
    1
  9
$HYPERLINKBASE
  1

  9
$STYLESHEET
  1

  9
$XEDIT
290
    1
  9
$CEPSNTYPE
380
    0
  9
$PSTYLEMODE
290
    1
  9
$EXTNAMES
290
    1
  9
$PSVPSCALE
 40
0
  9
$OLESTARTUP
290
    0
  9
$SORTENTS
280
  127
  9
$INDEXCTL
280
    0
  9
$HIDETEXT
280
    1
  9
$XCLIPFRAME
290
    0
  9
$HALOGAP
280
    0
  9
$OBSCOLOR
 70
  257
  9
$OBSLTYPE
280
    0
  9
$INTERSECTIONDISPLAY
280
    0
  9
$INTERSECTIONCOLOR
 70
  257
  9
$DIMASSOC
280
    1
  9
$PROJECTNAME
  1

  9
$CAMERADISPLAY
290
    0
  9
$LENSLENGTH
 40
50
  9
$CAMERAHEIGHT
 40
0
  9
$STEPSPERSEC
 40
2
  9
$STEPSIZE
 40
50
  9
$3DDWFPREC
 40
2
  9
$PSOLWIDTH
 40
5
  9
$PSOLHEIGHT
 40
80
  9
$LOFTANG1
 40
1.570796326794897
  9
$LOFTANG2
 40
1.570796326794897
  9
$LOFTMAG1
 40
0
  9
$LOFTMAG2
 40
0
  9
$LOFTPARAM
 70
    7
  9
$LOFTNORMALS
280
    1
  9
$LATITUDE
 40
1
  9
$LONGITUDE
 40
1
  9
$NORTHDIRECTION
 40
0
  9
$TIMEZONE
 70
-8000
  9
$LIGHTGLYPHDISPLAY
280
    1
  9
$TILEMODELIGHTSYNCH
280
    1
  9
$SOLIDHIST
280
    1
  9
$SHOWHIST
280
    1
  9
$DWFFRAME
280
    2
  9
$DGNFRAME
280
    0
  9
$REALWORLDSCALE
290
    1
  9
$INTERFERECOLOR
 62
    1
  9
$CSHADOW
280
    0
  9
$SHADOWPLANELOCATION
 40
0
  0
ENDSEC
  0
SECTION
  2
CLASSES
  0
ENDSEC
  0
SECTION
  2
TABLES
  0
TABLE
  2
VPORT
  5
8
330
0
100
AcDbSymbolTable
 70
    1
  0
VPORT
  5
31
330
2
100
AcDbSymbolTableRecord
100
AcDbViewportTableRecord
  2
*ACTIVE
 70
    0
 10
0
 20
0
 11
1
 21
1
 12
5.377895039964534
 22
3.537881024822483
 13
0
 23
0
 14
10
 24
10
 15
10
 25
10
 16
0
 26
0
 36
1
 17
0
 27
0
 37
0
 40
12.9353774970072
 41
1.931623931623932
 42
50
 43
0
 44
0
 50
0
 51
0
 71
    0
 72
  100
 73
    1
 74
    3
 75
    0
 76
    1
 77
    0
 78
    0
281
    0
 65
    1
110
0
120
0
130
0
111
1
121
0
131
0
112
0
122
1
132
0
 79
    0
146
0
348
10020
 60
    7
 61
    5
292
1
282
    1
141
0
142
0
 63
  250
421
3358443
  0
ENDTAB
  0
TABLE
  2
LTYPE
  5
5
330
0
100
AcDbSymbolTable
 70
    4
  0
LTYPE
  5
14
330
5
100
AcDbSymbolTableRecord
100
AcDbLinetypeTableRecord
  2
ByBlock
 70
    0
  3

 72
   65
 73
    0
 40
0
  0
LTYPE
  5
15
330
5
100
AcDbSymbolTableRecord
100
AcDbLinetypeTableRecord
  2
ByLayer
 70
    0
  3

 72
   65
 73
    0
 40
0
  0
LTYPE
  5
16
330
5
100
AcDbSymbolTableRecord
100
AcDbLinetypeTableRecord
  2
Continuous
 70
    0
  3
Solid line
 72
   65
 73
    0
 40
0
  0
LTYPE
  5
32
330
5
100
AcDbSymbolTableRecord
100
AcDbLinetypeTableRecord
  2
DOT
 70
    0
  3
Dot . . . . . . . . . . . . . . . . . . . . . .
 72
   65
 73
    2
 40
6.35
 49
0
 74
    0
 49
-6.35
 74
    0
  0
LTYPE
  5
33
330
5
100
AcDbSymbolTableRecord
100
AcDbLinetypeTableRecord
  2
DOTTINY
 70
    0
  3
Dot (.15x) .....................................
 72
   65
 73
    2
 40
0.9525
 49
0
 74
    0
 49
-0.9525
 74
    0
  0
LTYPE
  5
34
330
5
100
AcDbSymbolTableRecord
100
AcDbLinetypeTableRecord
  2
DOT2
 70
    0
  3
Dot (.5x) .....................................
 72
   65
 73
    2
 40
3.175
 49
0
 74
    0
 49
-3.175
 74
    0
  0
LTYPE
  5
35
330
5
100
AcDbSymbolTableRecord
100
AcDbLinetypeTableRecord
  2
DOTX2
 70
    0
  3
Dot (2x) .  .  .  .  .  .  .  .  .  .  .  .  .
 72
   65
 73
    2
 40
12.7
 49
0
 74
    0
 49
-12.7
 74
    0
  0
LTYPE
  5
36
330
5
100
AcDbSymbolTableRecord
100
AcDbLinetypeTableRecord
  2
DASHED
 70
    0
  3
Dashed _ _ _ _ _ _ _ _ _ _ _ _ _ _ _ _ _
 72
   65
 73
    2
 40
19.05
 49
12.7
 74
    0
 49
-6.35
 74
    0
  0
LTYPE
  5
37
330
5
100
AcDbSymbolTableRecord
100
AcDbLinetypeTableRecord
  2
DASHEDTINY
 70
    0
  3
Dashed (.15x) _ _ _ _ _ _ _ _ _ _ _ _ _ _ _ _ _
 72
   65
 73
    2
 40
2.8575
 49
1.905
 74
    0
 49
-0.9525
 74
    0
  0
LTYPE
  5
38
330
5
100
AcDbSymbolTableRecord
100
AcDbLinetypeTableRecord
  2
DASHED2
 70
    0
  3
Dashed (.5x) _ _ _ _ _ _ _ _ _ _ _ _ _ _ _ _ _
 72
   65
 73
    2
 40
9.524999999999999
 49
6.35
 74
    0
 49
-3.175
 74
    0
  0
LTYPE
  5
39
330
5
100
AcDbSymbolTableRecord
100
AcDbLinetypeTableRecord
  2
DASHEDX2
 70
    0
  3
Dashed (2x) ____  ____  ____  ____  ____  ___
 72
   65
 73
    2
 40
38.09999999999999
 49
25.4
 74
    0
 49
-12.7
 74
    0
  0
LTYPE
  5
3A
330
5
100
AcDbSymbolTableRecord
100
AcDbLinetypeTableRecord
  2
DASHDOT
 70
    0
  3
Dash dot __ . __ . __ . __ . __ . __ . __ . __
 72
   65
 73
    4
 40
25.4
 49
12.7
 74
    0
 49
-6.35
 74
    0
 49
0
 74
    0
 49
-6.35
 74
    0
  0
LTYPE
  5
3B
330
5
100
AcDbSymbolTableRecord
100
AcDbLinetypeTableRecord
  2
DASHDOTTINY
 70
    0
  3
Dash dot (.15x) _._._._._._._._._._._._._._._.
 72
   65
 73
    4
 40
3.81
 49
1.905
 74
    0
 49
-0.9525
 74
    0
 49
0
 74
    0
 49
-0.9525
 74
    0
  0
LTYPE
  5
3C
330
5
100
AcDbSymbolTableRecord
100
AcDbLinetypeTableRecord
  2
DASHDOT2
 70
    0
  3
Dash dot (.5x) _._._._._._._._._._._._._._._.
 72
   65
 73
    4
 40
12.7
 49
6.35
 74
    0
 49
-3.175
 74
    0
 49
0
 74
    0
 49
-3.175
 74
    0
  0
LTYPE
  5
3D
330
5
100
AcDbSymbolTableRecord
100
AcDbLinetypeTableRecord
  2
DASHDOTX2
 70
    0
  3
Dash dot (2x) ____  .  ____  .  ____  .  ___
 72
   65
 73
    4
 40
50.8
 49
25.4
 74
    0
 49
-12.7
 74
    0
 49
0
 74
    0
 49
-12.7
 74
    0
  0
LTYPE
  5
3E
330
5
100
AcDbSymbolTableRecord
100
AcDbLinetypeTableRecord
  2
DIVIDE
 70
    0
  3
Divide ____ . . ____ . . ____ . . ____ . . ____
 72
   65
 73
    6
 40
31.75
 49
12.7
 74
    0
 49
-6.35
 74
    0
 49
0
 74
    0
 49
-6.35
 74
    0
 49
0
 74
    0
 49
-6.35
 74
    0
  0
LTYPE
  5
3F
330
5
100
AcDbSymbolTableRecord
100
AcDbLinetypeTableRecord
  2
DIVIDETINY
 70
    0
  3
Divide (.15x) __..__..__..__..__..__..__..__.._
 72
   65
 73
    6
 40
4.7625
 49
1.905
 74
    0
 49
-0.9525
 74
    0
 49
0
 74
    0
 49
-0.9525
 74
    0
 49
0
 74
    0
 49
-0.9525
 74
    0
  0
LTYPE
  5
40
330
5
100
AcDbSymbolTableRecord
100
AcDbLinetypeTableRecord
  2
DIVIDE2
 70
    0
  3
Divide (.5x) __..__..__..__..__..__..__..__.._
 72
   65
 73
    6
 40
15.875
 49
6.35
 74
    0
 49
-3.175
 74
    0
 49
0
 74
    0
 49
-3.175
 74
    0
 49
0
 74
    0
 49
-3.175
 74
    0
  0
LTYPE
  5
41
330
5
100
AcDbSymbolTableRecord
100
AcDbLinetypeTableRecord
  2
DIVIDEX2
 70
    0
  3
Divide (2x) ________  .  .  ________  .  .  _
 72
   65
 73
    6
 40
63.5
 49
25.4
 74
    0
 49
-12.7
 74
    0
 49
0
 74
    0
 49
-12.7
 74
    0
 49
0
 74
    0
 49
-12.7
 74
    0
  0
LTYPE
  5
42
330
5
100
AcDbSymbolTableRecord
100
AcDbLinetypeTableRecord
  2
BORDER
 70
    0
  3
Border __ __ . __ __ . __ __ . __ __ . __ __ .
 72
   65
 73
    6
 40
44.45
 49
12.7
 74
    0
 49
-6.35
 74
    0
 49
12.7
 74
    0
 49
-6.35
 74
    0
 49
0
 74
    0
 49
-6.35
 74
    0
  0
LTYPE
  5
43
330
5
100
AcDbSymbolTableRecord
100
AcDbLinetypeTableRecord
  2
BORDERTINY
 70
    0
  3
Border (.15x) __.__.__.__.__.__.__.__.__.__.__.
 72
   65
 73
    6
 40
6.6675
 49
1.905
 74
    0
 49
-0.9525
 74
    0
 49
1.905
 74
    0
 49
-0.9525
 74
    0
 49
0
 74
    0
 49
-0.9525
 74
    0
  0
LTYPE
  5
44
330
5
100
AcDbSymbolTableRecord
100
AcDbLinetypeTableRecord
  2
BORDER2
 70
    0
  3
Border (.5x) __.__.__.__.__.__.__.__.__.__.__.
 72
   65
 73
    6
 40
22.225
 49
6.35
 74
    0
 49
-3.175
 74
    0
 49
6.35
 74
    0
 49
-3.175
 74
    0
 49
0
 74
    0
 49
-3.175
 74
    0
  0
LTYPE
  5
45
330
5
100
AcDbSymbolTableRecord
100
AcDbLinetypeTableRecord
  2
BORDERX2
 70
    0
  3
Border (2x) ____  ____  .  ____  ____  .  ___
 72
   65
 73
    6
 40
88.89999999999999
 49
25.4
 74
    0
 49
-12.7
 74
    0
 49
25.4
 74
    0
 49
-12.7
 74
    0
 49
0
 74
    0
 49
-12.7
 74
    0
  0
LTYPE
  5
46
330
5
100
AcDbSymbolTableRecord
100
AcDbLinetypeTableRecord
  2
CENTER
 70
    0
  3
Center ____ _ ____ _ ____ _ ____ _ ____ _ ____
 72
   65
 73
    4
 40
50.8
 49
31.75
 74
    0
 49
-6.35
 74
    0
 49
6.35
 74
    0
 49
-6.35
 74
    0
  0
LTYPE
  5
47
330
5
100
AcDbSymbolTableRecord
100
AcDbLinetypeTableRecord
  2
CENTERTINY
 70
    0
  3
Center (.15x) ___ _ ___ _ ___ _ ___ _ ___ _ ___
 72
   65
 73
    4
 40
7.619999999999999
 49
4.7625
 74
    0
 49
-0.9525
 74
    0
 49
0.9525
 74
    0
 49
-0.9525
 74
    0
  0
LTYPE
  5
48
330
5
100
AcDbSymbolTableRecord
100
AcDbLinetypeTableRecord
  2
CENTER2
 70
    0
  3
Center (.5x) ___ _ ___ _ ___ _ ___ _ ___ _ ___
 72
   65
 73
    4
 40
28.575
 49
19.05
 74
    0
 49
-3.175
 74
    0
 49
3.175
 74
    0
 49
-3.175
 74
    0
  0
LTYPE
  5
49
330
5
100
AcDbSymbolTableRecord
100
AcDbLinetypeTableRecord
  2
CENTERX2
 70
    0
  3
Center (2x) ________  __  ________  __  _____
 72
   65
 73
    4
 40
101.6
 49
63.5
 74
    0
 49
-12.7
 74
    0
 49
12.7
 74
    0
 49
-12.7
 74
    0
  0
ENDTAB
  0
TABLE
  2
LAYER
  5
2
330
0
100
AcDbSymbolTable
 70
    1
  0
LAYER
  5
10
330
2
100
AcDbSymbolTableRecord
100
AcDbLayerTableRecord
  2
0
 70
    0
 62
    7
  6
CONTINUOUS
370
   -3
390
F
  0
LAYER
  5
4A
330
2
100
AcDbSymbolTableRecord
100
AcDbLayerTableRecord
  2
DIM
 70
    0
 62
    3
  6
CONTINUOUS
370
    0
390
F
  0
ENDTAB
  0
TABLE
  2
STYLE
  5
3
330
0
100
AcDbSymbolTable
 70
    3
  0
STYLE
  5
4B
330
2
100
AcDbSymbolTableRecord
100
AcDbTextStyleTableRecord
  2
Standard
 70
    0
 40
0
 41
1
 50
0
 71
    0
 42
1
  3
txt
  4

  0
ENDTAB
  0
TABLE
  2
VIEW
  5
6
330
0
100
AcDbSymbolTable
 70
    0
  0
ENDTAB
  0
TABLE
  2
UCS
  5
7
330
0
100
AcDbSymbolTable
 70
    0
  0
ENDTAB
  0
TABLE
  2
APPID
  5
9
330
0
100
AcDbSymbolTable
 70
    1
  0
APPID
  5
12
330
9
100
AcDbSymbolTableRecord
100
AcDbRegAppTableRecord
  2
ACAD
 70
    0
  0
APPID
  5
4C
330
9
100
AcDbSymbolTableRecord
100
AcDbRegAppTableRecord
  2
LibreCad
 70
    0
  0
ENDTAB
  0
TABLE
  2
DIMSTYLE
  5
A
330
0
100
AcDbSymbolTable
 70
    1
100
AcDbDimStyleTable
 71
    1
  0
DIMSTYLE
105
4D
330
A
100
AcDbSymbolTableRecord
100
AcDbDimStyleTableRecord
  2
Standard
 70
    0
 40
1
 41
0.13
 42
0.0393700787
 43
0.38
 44
0.0393700787
 45
0
 46
0
 47
0
 48
0
 49
1
140
0.1377952756
141
0.09
142
0
143
25.4
144
1
145
0
146
1
147
0.06
148
0
 71
    0
 72
    0
 73
    1
 74
    1
 75
    0
 76
    0
 77
    0
 78
    0
 79
    0
170
    0
171
    2
172
    0
173
    0
174
    0
175
    0
176
    0
177
    0
178
    0
179
    0
271
    4
272
    4
273
    2
274
    2
275
    0
276
    0
277
    2
278
   46
279
    0
280
    0
281
    0
282
    0
283
    1
284
    0
285
    0
286
    0
288
    0
289
    3
340
Standard
341

371
   -2
372
   -2
  0
ENDTAB
  0
TABLE
  2
BLOCK_RECORD
  5
1
330
0
100
AcDbSymbolTable
 70
    2
  0
BLOCK_RECORD
  5
1F
330
1
100
AcDbSymbolTableRecord
100
AcDbBlockTableRecord
  2
*Model_Space
 70
    0
280
    1
281
    0
  0
BLOCK_RECORD
  5
1E
330
1
100
AcDbSymbolTableRecord
100
AcDbBlockTableRecord
  2
*Paper_Space
 70
    0
280
    1
281
    0
  0
ENDTAB
  0
ENDSEC
  0
SECTION
  2
BLOCKS
  0
BLOCK
  5
20
330
1F
100
AcDbEntity
  8
0
100
AcDbBlockBegin
  2
*Model_Space
 70
    0
 10
0
 20
0
 30
0
  3
*Model_Space
  1

  0
ENDBLK
  5
21
330
1F
100
AcDbEntity
  8
0
100
AcDbBlockEnd
  0
BLOCK
  5
1C
330
1B
100
AcDbEntity
  8
0
100
AcDbBlockBegin
  2
*Paper_Space
 70
    0
 10
0
 20
0
 30
0
  3
*Paper_Space
  1

  0
ENDBLK
  5
1D
330
1F
100
AcDbEntity
  8
0
100
AcDbBlockEnd
  0
ENDSEC
  0
SECTION
  2
ENTITIES
  0
LINE
  5
4E
100
AcDbEntity
  8
0
  6
ByLayer
 62
  256
370
   -1
100
AcDbLine
 10
-1.057515088316624
 20
-0.9462502199389022
 11
-1.204515088316619
 21
-0.9462502199389022
  0
LINE
  5
4F
100
AcDbEntity
  8
0
  6
ByLayer
 62
  256
370
   -1
100
AcDbLine
 10
-1.204515088316619
 20
-0.9462502199389022
 11
-1.204515088316619
 21
-1.064250219938902
  0
LINE
  5
50
100
AcDbEntity
  8
0
  6
ByLayer
 62
  256
370
   -1
100
AcDbLine
 10
-1.204515088316619
 20
-1.064250219938902
 11
-1.894515088316624
 21
-1.064250219938902
  0
LINE
  5
51
100
AcDbEntity
  8
0
  6
ByLayer
 62
  256
370
   -1
100
AcDbLine
 10
-1.894515088316624
 20
-1.064250219938902
 11
-1.894515088316624
 21
-0.9462502199389022
  0
LINE
  5
52
100
AcDbEntity
  8
0
  6
ByLayer
 62
  256
370
   -1
100
AcDbLine
 10
-1.894515088316624
 20
-0.9462502199389022
 11
-2.584515088316619
 21
-0.9462502199389022
  0
LINE
  5
53
100
AcDbEntity
  8
0
  6
ByLayer
 62
  256
370
   -1
100
AcDbLine
 10
-2.584515088316619
 20
-0.9462502199389022
 11
-2.584515088316619
 21
-1.064250219938902
  0
LINE
  5
54
100
AcDbEntity
  8
0
  6
ByLayer
 62
  256
370
   -1
100
AcDbLine
 10
-2.584515088316619
 20
-1.064250219938902
 11
-3.274515088316624
 21
-1.064250219938902
  0
LINE
  5
55
100
AcDbEntity
  8
0
  6
ByLayer
 62
  256
370
   -1
100
AcDbLine
 10
-3.274515088316624
 20
-1.064250219938902
 11
-3.274515088316624
 21
-0.9462502199389022
  0
LINE
  5
56
100
AcDbEntity
  8
0
  6
ByLayer
 62
  256
370
   -1
100
AcDbLine
 10
-3.274515088316624
 20
-0.9462502199389022
 11
-3.964515088316618
 21
-0.9462502199389022
  0
LINE
  5
57
100
AcDbEntity
  8
0
  6
ByLayer
 62
  256
370
   -1
100
AcDbLine
 10
-3.964515088316618
 20
-0.9462502199389022
 11
-3.964515088316618
 21
-1.064250219938902
  0
LINE
  5
58
100
AcDbEntity
  8
0
  6
ByLayer
 62
  256
370
   -1
100
AcDbLine
 10
-3.964515088316618
 20
-1.064250219938902
 11
-4.654515088316624
 21
-1.064250219938902
  0
LINE
  5
59
100
AcDbEntity
  8
0
  6
ByLayer
 62
  256
370
   -1
100
AcDbLine
 10
-4.654515088316624
 20
-1.064250219938902
 11
-4.654515088316624
 21
-0.9462502199389022
  0
LINE
  5
5A
100
AcDbEntity
  8
0
  6
ByLayer
 62
  256
370
   -1
100
AcDbLine
 10
-4.654515088316624
 20
-0.9462502199389022
 11
-5.34451508831663
 21
-0.9462502199389022
  0
LINE
  5
5B
100
AcDbEntity
  8
0
  6
ByLayer
 62
  256
370
   -1
100
AcDbLine
 10
-5.34451508831663
 20
-0.9462502199389022
 11
-5.34451508831663
 21
-1.064250219938902
  0
LINE
  5
5C
100
AcDbEntity
  8
0
  6
ByLayer
 62
  256
370
   -1
100
AcDbLine
 10
-5.34451508831663
 20
-1.064250219938902
 11
-6.034515088316624
 21
-1.064250219938902
  0
LINE
  5
5D
100
AcDbEntity
  8
0
  6
ByLayer
 62
  256
370
   -1
100
AcDbLine
 10
-6.034515088316624
 20
-1.064250219938902
 11
-6.034515088316624
 21
-0.9462502199389022
  0
LINE
  5
5E
100
AcDbEntity
  8
0
  6
ByLayer
 62
  256
370
   -1
100
AcDbLine
 10
-6.034515088316624
 20
-0.9462502199389022
 11
-6.724515088316629
 21
-0.9462502199389022
  0
LINE
  5
5F
100
AcDbEntity
  8
0
  6
ByLayer
 62
  256
370
   -1
100
AcDbLine
 10
-6.724515088316629
 20
-0.9462502199389022
 11
-6.724515088316629
 21
-1.064250219938902
  0
LINE
  5
60
100
AcDbEntity
  8
0
  6
ByLayer
 62
  256
370
   -1
100
AcDbLine
 10
-6.724515088316629
 20
-1.064250219938902
 11
-7.414515088316623
 21
-1.064250219938902
  0
LINE
  5
61
100
AcDbEntity
  8
0
  6
ByLayer
 62
  256
370
   -1
100
AcDbLine
 10
-7.414515088316623
 20
-1.064250219938902
 11
-7.414515088316623
 21
-0.9462502199389022
  0
LINE
  5
62
100
AcDbEntity
  8
0
  6
ByLayer
 62
  256
370
   -1
100
AcDbLine
 10
-7.414515088316623
 20
-0.9462502199389022
 11
-8.10451508831663
 21
-0.9462502199389022
  0
LINE
  5
63
100
AcDbEntity
  8
0
  6
ByLayer
 62
  256
370
   -1
100
AcDbLine
 10
-8.10451508831663
 20
-0.9462502199389022
 11
-8.10451508831663
 21
-1.064250219938902
  0
LINE
  5
64
100
AcDbEntity
  8
0
  6
ByLayer
 62
  256
370
   -1
100
AcDbLine
 10
-8.10451508831663
 20
-1.064250219938902
 11
-8.794515088316624
 21
-1.064250219938902
  0
LINE
  5
65
100
AcDbEntity
  8
0
  6
ByLayer
 62
  256
370
   -1
100
AcDbLine
 10
-8.794515088316624
 20
-1.064250219938902
 11
-8.794515088316624
 21
-0.9462502199389022
  0
LINE
  5
66
100
AcDbEntity
  8
0
  6
ByLayer
 62
  256
370
   -1
100
AcDbLine
 10
-8.794515088316624
 20
-0.9462502199389022
 11
-9.484515088316629
 21
-0.9462502199389022
  0
LINE
  5
67
100
AcDbEntity
  8
0
  6
ByLayer
 62
  256
370
   -1
100
AcDbLine
 10
-9.484515088316629
 20
-0.9462502199389022
 11
-9.484515088316629
 21
-1.064250219938902
  0
LINE
  5
68
100
AcDbEntity
  8
0
  6
ByLayer
 62
  256
370
   -1
100
AcDbLine
 10
-9.484515088316629
 20
-1.064250219938902
 11
-10.17451508831662
 21
-1.064250219938902
  0
LINE
  5
69
100
AcDbEntity
  8
0
  6
ByLayer
 62
  256
370
   -1
100
AcDbLine
 10
-10.17451508831662
 20
-1.064250219938902
 11
-10.17451508831662
 21
-0.9462502199389022
  0
LINE
  5
6A
100
AcDbEntity
  8
0
  6
ByLayer
 62
  256
370
   -1
100
AcDbLine
 10
-10.17451508831662
 20
-0.9462502199389022
 11
-10.32151508831663
 21
-0.9462502199389022
  0
LINE
  5
6B
100
AcDbEntity
  8
0
  6
ByLayer
 62
  256
370
   -1
100
AcDbLine
 10
-10.32151508831663
 20
-0.9462502199389022
 11
-10.32151508831663
 21
-1.064250219938902
  0
LINE
  5
6C
100
AcDbEntity
  8
0
  6
ByLayer
 62
  256
370
   -1
100
AcDbLine
 10
-10.32151508831663
 20
-1.064250219938902
 11
-10.32151508831663
 21
-1.851250219938902
  0
LINE
  5
6D
100
AcDbEntity
  8
0
  6
ByLayer
 62
  256
370
   -1
100
AcDbLine
 10
-10.32151508831663
 20
-1.851250219938902
 11
-10.43951508831662
 21
-1.851250219938902
  0
LINE
  5
6E
100
AcDbEntity
  8
0
  6
ByLayer
 62
  256
370
   -1
100
AcDbLine
 10
-10.43951508831662
 20
-1.851250219938902
 11
-10.43951508831662
 21
-2.541250219938901
  0
LINE
  5
6F
100
AcDbEntity
  8
0
  6
ByLayer
 62
  256
370
   -1
100
AcDbLine
 10
-10.43951508831662
 20
-2.541250219938901
 11
-10.32151508831663
 21
-2.541250219938901
  0
LINE
  5
70
100
AcDbEntity
  8
0
  6
ByLayer
 62
  256
370
   -1
100
AcDbLine
 10
-10.32151508831663
 20
-2.541250219938901
 11
-10.32151508831663
 21
-3.328250219938902
  0
LINE
  5
71
100
AcDbEntity
  8
0
  6
ByLayer
 62
  256
370
   -1
100
AcDbLine
 10
-10.32151508831663
 20
-3.328250219938902
 11
-10.32151508831663
 21
-3.446250219938902
  0
LINE
  5
72
100
AcDbEntity
  8
0
  6
ByLayer
 62
  256
370
   -1
100
AcDbLine
 10
-10.32151508831663
 20
-3.446250219938902
 11
-10.17451508831662
 21
-3.446250219938902
  0
LINE
  5
73
100
AcDbEntity
  8
0
  6
ByLayer
 62
  256
370
   -1
100
AcDbLine
 10
-10.17451508831662
 20
-3.446250219938902
 11
-10.17451508831662
 21
-3.328250219938902
  0
LINE
  5
74
100
AcDbEntity
  8
0
  6
ByLayer
 62
  256
370
   -1
100
AcDbLine
 10
-10.17451508831662
 20
-3.328250219938902
 11
-9.484515088316629
 21
-3.328250219938902
  0
LINE
  5
75
100
AcDbEntity
  8
0
  6
ByLayer
 62
  256
370
   -1
100
AcDbLine
 10
-9.484515088316629
 20
-3.328250219938902
 11
-9.484515088316629
 21
-3.446250219938902
  0
LINE
  5
76
100
AcDbEntity
  8
0
  6
ByLayer
 62
  256
370
   -1
100
AcDbLine
 10
-9.484515088316629
 20
-3.446250219938902
 11
-8.794515088316624
 21
-3.446250219938902
  0
LINE
  5
77
100
AcDbEntity
  8
0
  6
ByLayer
 62
  256
370
   -1
100
AcDbLine
 10
-8.794515088316624
 20
-3.446250219938902
 11
-8.794515088316624
 21
-3.328250219938902
  0
LINE
  5
78
100
AcDbEntity
  8
0
  6
ByLayer
 62
  256
370
   -1
100
AcDbLine
 10
-8.794515088316624
 20
-3.328250219938902
 11
-8.10451508831663
 21
-3.328250219938902
  0
LINE
  5
79
100
AcDbEntity
  8
0
  6
ByLayer
 62
  256
370
   -1
100
AcDbLine
 10
-8.10451508831663
 20
-3.328250219938902
 11
-8.10451508831663
 21
-3.446250219938902
  0
LINE
  5
7A
100
AcDbEntity
  8
0
  6
ByLayer
 62
  256
370
   -1
100
AcDbLine
 10
-8.10451508831663
 20
-3.446250219938902
 11
-7.414515088316623
 21
-3.446250219938902
  0
LINE
  5
7B
100
AcDbEntity
  8
0
  6
ByLayer
 62
  256
370
   -1
100
AcDbLine
 10
-7.414515088316623
 20
-3.446250219938902
 11
-7.414515088316623
 21
-3.328250219938902
  0
LINE
  5
7C
100
AcDbEntity
  8
0
  6
ByLayer
 62
  256
370
   -1
100
AcDbLine
 10
-7.414515088316623
 20
-3.328250219938902
 11
-6.724515088316629
 21
-3.328250219938902
  0
LINE
  5
7D
100
AcDbEntity
  8
0
  6
ByLayer
 62
  256
370
   -1
100
AcDbLine
 10
-6.724515088316629
 20
-3.328250219938902
 11
-6.724515088316629
 21
-3.446250219938902
  0
LINE
  5
7E
100
AcDbEntity
  8
0
  6
ByLayer
 62
  256
370
   -1
100
AcDbLine
 10
-6.724515088316629
 20
-3.446250219938902
 11
-6.034515088316624
 21
-3.446250219938902
  0
LINE
  5
7F
100
AcDbEntity
  8
0
  6
ByLayer
 62
  256
370
   -1
100
AcDbLine
 10
-6.034515088316624
 20
-3.446250219938902
 11
-6.034515088316624
 21
-3.328250219938902
  0
LINE
  5
80
100
AcDbEntity
  8
0
  6
ByLayer
 62
  256
370
   -1
100
AcDbLine
 10
-6.034515088316624
 20
-3.328250219938902
 11
-5.34451508831663
 21
-3.328250219938902
  0
LINE
  5
81
100
AcDbEntity
  8
0
  6
ByLayer
 62
  256
370
   -1
100
AcDbLine
 10
-5.34451508831663
 20
-3.328250219938902
 11
-5.34451508831663
 21
-3.446250219938902
  0
LINE
  5
82
100
AcDbEntity
  8
0
  6
ByLayer
 62
  256
370
   -1
100
AcDbLine
 10
-5.34451508831663
 20
-3.446250219938902
 11
-4.654515088316624
 21
-3.446250219938902
  0
LINE
  5
83
100
AcDbEntity
  8
0
  6
ByLayer
 62
  256
370
   -1
100
AcDbLine
 10
-4.654515088316624
 20
-3.446250219938902
 11
-4.654515088316624
 21
-3.328250219938902
  0
LINE
  5
84
100
AcDbEntity
  8
0
  6
ByLayer
 62
  256
370
   -1
100
AcDbLine
 10
-4.654515088316624
 20
-3.328250219938902
 11
-3.964515088316618
 21
-3.328250219938902
  0
LINE
  5
85
100
AcDbEntity
  8
0
  6
ByLayer
 62
  256
370
   -1
100
AcDbLine
 10
-3.964515088316618
 20
-3.328250219938902
 11
-3.964515088316618
 21
-3.446250219938902
  0
LINE
  5
86
100
AcDbEntity
  8
0
  6
ByLayer
 62
  256
370
   -1
100
AcDbLine
 10
-3.964515088316618
 20
-3.446250219938902
 11
-3.274515088316624
 21
-3.446250219938902
  0
LINE
  5
87
100
AcDbEntity
  8
0
  6
ByLayer
 62
  256
370
   -1
100
AcDbLine
 10
-3.274515088316624
 20
-3.446250219938902
 11
-3.274515088316624
 21
-3.328250219938902
  0
LINE
  5
88
100
AcDbEntity
  8
0
  6
ByLayer
 62
  256
370
   -1
100
AcDbLine
 10
-3.274515088316624
 20
-3.328250219938902
 11
-2.584515088316619
 21
-3.328250219938902
  0
LINE
  5
89
100
AcDbEntity
  8
0
  6
ByLayer
 62
  256
370
   -1
100
AcDbLine
 10
-2.584515088316619
 20
-3.328250219938902
 11
-2.584515088316619
 21
-3.446250219938902
  0
LINE
  5
8A
100
AcDbEntity
  8
0
  6
ByLayer
 62
  256
370
   -1
100
AcDbLine
 10
-2.584515088316619
 20
-3.446250219938902
 11
-1.894515088316624
 21
-3.446250219938902
  0
LINE
  5
8B
100
AcDbEntity
  8
0
  6
ByLayer
 62
  256
370
   -1
100
AcDbLine
 10
-1.894515088316624
 20
-3.446250219938902
 11
-1.894515088316624
 21
-3.328250219938902
  0
LINE
  5
8C
100
AcDbEntity
  8
0
  6
ByLayer
 62
  256
370
   -1
100
AcDbLine
 10
-1.894515088316624
 20
-3.328250219938902
 11
-1.204515088316619
 21
-3.328250219938902
  0
LINE
  5
8D
100
AcDbEntity
  8
0
  6
ByLayer
 62
  256
370
   -1
100
AcDbLine
 10
-1.204515088316619
 20
-3.328250219938902
 11
-1.204515088316619
 21
-3.446250219938902
  0
LINE
  5
8E
100
AcDbEntity
  8
0
  6
ByLayer
 62
  256
370
   -1
100
AcDbLine
 10
-1.204515088316619
 20
-3.446250219938902
 11
-1.057515088316624
 21
-3.446250219938902
  0
LINE
  5
8F
100
AcDbEntity
  8
0
  6
ByLayer
 62
  256
370
   -1
100
AcDbLine
 10
-1.057515088316624
 20
-3.446250219938902
 11
-1.057515088316624
 21
-3.328250219938902
  0
LINE
  5
90
100
AcDbEntity
  8
0
  6
ByLayer
 62
  256
370
   -1
100
AcDbLine
 10
-1.057515088316624
 20
-3.328250219938902
 11
-1.057515088316624
 21
-2.541250219938901
  0
LINE
  5
91
100
AcDbEntity
  8
0
  6
ByLayer
 62
  256
370
   -1
100
AcDbLine
 10
-1.057515088316624
 20
-2.541250219938901
 11
-0.9395150883166297
 21
-2.541250219938901
  0
LINE
  5
92
100
AcDbEntity
  8
0
  6
ByLayer
 62
  256
370
   -1
100
AcDbLine
 10
-0.9395150883166297
 20
-2.541250219938901
 11
-0.9395150883166297
 21
-1.851250219938902
  0
LINE
  5
93
100
AcDbEntity
  8
0
  6
ByLayer
 62
  256
370
   -1
100
AcDbLine
 10
-0.9395150883166297
 20
-1.851250219938902
 11
-1.057515088316624
 21
-1.851250219938902
  0
LINE
  5
94
100
AcDbEntity
  8
0
  6
ByLayer
 62
  256
370
   -1
100
AcDbLine
 10
-1.057515088316624
 20
-1.851250219938902
 11
-1.057515088316624
 21
-1.064250219938902
  0
LINE
  5
95
100
AcDbEntity
  8
0
  6
ByLayer
 62
  256
370
   -1
100
AcDbLine
 10
-1.057515088316624
 20
-1.064250219938902
 11
-1.057515088316624
 21
-0.9462502199389022
  0
LINE
  5
96
100
AcDbEntity
  8
0
  6
ByLayer
 62
  256
370
   -1
100
AcDbLine
 10
-1.057515088316624
 20
1.671749780061097
 11
-1.204515088316619
 21
1.671749780061097
  0
LINE
  5
97
100
AcDbEntity
  8
0
  6
ByLayer
 62
  256
370
   -1
100
AcDbLine
 10
-1.204515088316619
 20
1.671749780061097
 11
-1.204515088316619
 21
1.553749780061097
  0
LINE
  5
98
100
AcDbEntity
  8
0
  6
ByLayer
 62
  256
370
   -1
100
AcDbLine
 10
-1.204515088316619
 20
1.553749780061097
 11
-1.894515088316624
 21
1.553749780061097
  0
LINE
  5
99
100
AcDbEntity
  8
0
  6
ByLayer
 62
  256
370
   -1
100
AcDbLine
 10
-1.894515088316624
 20
1.553749780061097
 11
-1.894515088316624
 21
1.671749780061097
  0
LINE
  5
9A
100
AcDbEntity
  8
0
  6
ByLayer
 62
  256
370
   -1
100
AcDbLine
 10
-1.894515088316624
 20
1.671749780061097
 11
-2.584515088316619
 21
1.671749780061097
  0
LINE
  5
9B
100
AcDbEntity
  8
0
  6
ByLayer
 62
  256
370
   -1
100
AcDbLine
 10
-2.584515088316619
 20
1.671749780061097
 11
-2.584515088316619
 21
1.553749780061097
  0
LINE
  5
9C
100
AcDbEntity
  8
0
  6
ByLayer
 62
  256
370
   -1
100
AcDbLine
 10
-2.584515088316619
 20
1.553749780061097
 11
-3.274515088316624
 21
1.553749780061097
  0
LINE
  5
9D
100
AcDbEntity
  8
0
  6
ByLayer
 62
  256
370
   -1
100
AcDbLine
 10
-3.274515088316624
 20
1.553749780061097
 11
-3.274515088316624
 21
1.671749780061097
  0
LINE
  5
9E
100
AcDbEntity
  8
0
  6
ByLayer
 62
  256
370
   -1
100
AcDbLine
 10
-3.274515088316624
 20
1.671749780061097
 11
-3.964515088316618
 21
1.671749780061097
  0
LINE
  5
9F
100
AcDbEntity
  8
0
  6
ByLayer
 62
  256
370
   -1
100
AcDbLine
 10
-3.964515088316618
 20
1.671749780061097
 11
-3.964515088316618
 21
1.553749780061097
  0
LINE
  5
A0
100
AcDbEntity
  8
0
  6
ByLayer
 62
  256
370
   -1
100
AcDbLine
 10
-3.964515088316618
 20
1.553749780061097
 11
-4.654515088316624
 21
1.553749780061097
  0
LINE
  5
A1
100
AcDbEntity
  8
0
  6
ByLayer
 62
  256
370
   -1
100
AcDbLine
 10
-4.654515088316624
 20
1.553749780061097
 11
-4.654515088316624
 21
1.671749780061097
  0
LINE
  5
A2
100
AcDbEntity
  8
0
  6
ByLayer
 62
  256
370
   -1
100
AcDbLine
 10
-4.654515088316624
 20
1.671749780061097
 11
-5.34451508831663
 21
1.671749780061097
  0
LINE
  5
A3
100
AcDbEntity
  8
0
  6
ByLayer
 62
  256
370
   -1
100
AcDbLine
 10
-5.34451508831663
 20
1.671749780061097
 11
-5.34451508831663
 21
1.553749780061097
  0
LINE
  5
A4
100
AcDbEntity
  8
0
  6
ByLayer
 62
  256
370
   -1
100
AcDbLine
 10
-5.34451508831663
 20
1.553749780061097
 11
-6.034515088316624
 21
1.553749780061097
  0
LINE
  5
A5
100
AcDbEntity
  8
0
  6
ByLayer
 62
  256
370
   -1
100
AcDbLine
 10
-6.034515088316624
 20
1.553749780061097
 11
-6.034515088316624
 21
1.671749780061097
  0
LINE
  5
A6
100
AcDbEntity
  8
0
  6
ByLayer
 62
  256
370
   -1
100
AcDbLine
 10
-6.034515088316624
 20
1.671749780061097
 11
-6.724515088316629
 21
1.671749780061097
  0
LINE
  5
A7
100
AcDbEntity
  8
0
  6
ByLayer
 62
  256
370
   -1
100
AcDbLine
 10
-6.724515088316629
 20
1.671749780061097
 11
-6.724515088316629
 21
1.553749780061097
  0
LINE
  5
A8
100
AcDbEntity
  8
0
  6
ByLayer
 62
  256
370
   -1
100
AcDbLine
 10
-6.724515088316629
 20
1.553749780061097
 11
-7.414515088316623
 21
1.553749780061097
  0
LINE
  5
A9
100
AcDbEntity
  8
0
  6
ByLayer
 62
  256
370
   -1
100
AcDbLine
 10
-7.414515088316623
 20
1.553749780061097
 11
-7.414515088316623
 21
1.671749780061097
  0
LINE
  5
AA
100
AcDbEntity
  8
0
  6
ByLayer
 62
  256
370
   -1
100
AcDbLine
 10
-7.414515088316623
 20
1.671749780061097
 11
-8.10451508831663
 21
1.671749780061097
  0
LINE
  5
AB
100
AcDbEntity
  8
0
  6
ByLayer
 62
  256
370
   -1
100
AcDbLine
 10
-8.10451508831663
 20
1.671749780061097
 11
-8.10451508831663
 21
1.553749780061097
  0
LINE
  5
AC
100
AcDbEntity
  8
0
  6
ByLayer
 62
  256
370
   -1
100
AcDbLine
 10
-8.10451508831663
 20
1.553749780061097
 11
-8.794515088316624
 21
1.553749780061097
  0
LINE
  5
AD
100
AcDbEntity
  8
0
  6
ByLayer
 62
  256
370
   -1
100
AcDbLine
 10
-8.794515088316624
 20
1.553749780061097
 11
-8.794515088316624
 21
1.671749780061097
  0
LINE
  5
AE
100
AcDbEntity
  8
0
  6
ByLayer
 62
  256
370
   -1
100
AcDbLine
 10
-8.794515088316624
 20
1.671749780061097
 11
-9.484515088316629
 21
1.671749780061097
  0
LINE
  5
AF
100
AcDbEntity
  8
0
  6
ByLayer
 62
  256
370
   -1
100
AcDbLine
 10
-9.484515088316629
 20
1.671749780061097
 11
-9.484515088316629
 21
1.553749780061097
  0
LINE
  5
B0
100
AcDbEntity
  8
0
  6
ByLayer
 62
  256
370
   -1
100
AcDbLine
 10
-9.484515088316629
 20
1.553749780061097
 11
-10.17451508831662
 21
1.553749780061097
  0
LINE
  5
B1
100
AcDbEntity
  8
0
  6
ByLayer
 62
  256
370
   -1
100
AcDbLine
 10
-10.17451508831662
 20
1.553749780061097
 11
-10.17451508831662
 21
1.671749780061097
  0
LINE
  5
B2
100
AcDbEntity
  8
0
  6
ByLayer
 62
  256
370
   -1
100
AcDbLine
 10
-10.17451508831662
 20
1.671749780061097
 11
-10.32151508831663
 21
1.671749780061097
  0
LINE
  5
B3
100
AcDbEntity
  8
0
  6
ByLayer
 62
  256
370
   -1
100
AcDbLine
 10
-10.32151508831663
 20
1.671749780061097
 11
-10.32151508831663
 21
1.553749780061097
  0
LINE
  5
B4
100
AcDbEntity
  8
0
  6
ByLayer
 62
  256
370
   -1
100
AcDbLine
 10
-10.32151508831663
 20
1.553749780061097
 11
-10.32151508831663
 21
0.7667497800610967
  0
LINE
  5
B5
100
AcDbEntity
  8
0
  6
ByLayer
 62
  256
370
   -1
100
AcDbLine
 10
-10.32151508831663
 20
0.7667497800610967
 11
-10.43951508831662
 21
0.7667497800610967
  0
LINE
  5
B6
100
AcDbEntity
  8
0
  6
ByLayer
 62
  256
370
   -1
100
AcDbLine
 10
-10.43951508831662
 20
0.7667497800610967
 11
-10.43951508831662
 21
0.07674978006109695
  0
LINE
  5
B7
100
AcDbEntity
  8
0
  6
ByLayer
 62
  256
370
   -1
100
AcDbLine
 10
-10.43951508831662
 20
0.07674978006109695
 11
-10.32151508831663
 21
0.07674978006109695
  0
LINE
  5
B8
100
AcDbEntity
  8
0
  6
ByLayer
 62
  256
370
   -1
100
AcDbLine
 10
-10.32151508831663
 20
0.07674978006109695
 11
-10.32151508831663
 21
-0.7102502199389022
  0
LINE
  5
B9
100
AcDbEntity
  8
0
  6
ByLayer
 62
  256
370
   -1
100
AcDbLine
 10
-10.32151508831663
 20
-0.7102502199389022
 11
-10.32151508831663
 21
-0.8282502199389024
  0
LINE
  5
BA
100
AcDbEntity
  8
0
  6
ByLayer
 62
  256
370
   -1
100
AcDbLine
 10
-10.32151508831663
 20
-0.8282502199389024
 11
-10.17451508831662
 21
-0.8282502199389024
  0
LINE
  5
BB
100
AcDbEntity
  8
0
  6
ByLayer
 62
  256
370
   -1
100
AcDbLine
 10
-10.17451508831662
 20
-0.8282502199389024
 11
-10.17451508831662
 21
-0.7102502199389022
  0
LINE
  5
BC
100
AcDbEntity
  8
0
  6
ByLayer
 62
  256
370
   -1
100
AcDbLine
 10
-10.17451508831662
 20
-0.7102502199389022
 11
-9.484515088316629
 21
-0.7102502199389022
  0
LINE
  5
BD
100
AcDbEntity
  8
0
  6
ByLayer
 62
  256
370
   -1
100
AcDbLine
 10
-9.484515088316629
 20
-0.7102502199389022
 11
-9.484515088316629
 21
-0.8282502199389024
  0
LINE
  5
BE
100
AcDbEntity
  8
0
  6
ByLayer
 62
  256
370
   -1
100
AcDbLine
 10
-9.484515088316629
 20
-0.8282502199389024
 11
-8.794515088316624
 21
-0.8282502199389024
  0
LINE
  5
BF
100
AcDbEntity
  8
0
  6
ByLayer
 62
  256
370
   -1
100
AcDbLine
 10
-8.794515088316624
 20
-0.8282502199389024
 11
-8.794515088316624
 21
-0.7102502199389022
  0
LINE
  5
C0
100
AcDbEntity
  8
0
  6
ByLayer
 62
  256
370
   -1
100
AcDbLine
 10
-8.794515088316624
 20
-0.7102502199389022
 11
-8.10451508831663
 21
-0.7102502199389022
  0
LINE
  5
C1
100
AcDbEntity
  8
0
  6
ByLayer
 62
  256
370
   -1
100
AcDbLine
 10
-8.10451508831663
 20
-0.7102502199389022
 11
-8.10451508831663
 21
-0.8282502199389024
  0
LINE
  5
C2
100
AcDbEntity
  8
0
  6
ByLayer
 62
  256
370
   -1
100
AcDbLine
 10
-8.10451508831663
 20
-0.8282502199389024
 11
-7.414515088316623
 21
-0.8282502199389024
  0
LINE
  5
C3
100
AcDbEntity
  8
0
  6
ByLayer
 62
  256
370
   -1
100
AcDbLine
 10
-7.414515088316623
 20
-0.8282502199389024
 11
-7.414515088316623
 21
-0.7102502199389022
  0
LINE
  5
C4
100
AcDbEntity
  8
0
  6
ByLayer
 62
  256
370
   -1
100
AcDbLine
 10
-7.414515088316623
 20
-0.7102502199389022
 11
-6.724515088316629
 21
-0.7102502199389022
  0
LINE
  5
C5
100
AcDbEntity
  8
0
  6
ByLayer
 62
  256
370
   -1
100
AcDbLine
 10
-6.724515088316629
 20
-0.7102502199389022
 11
-6.724515088316629
 21
-0.8282502199389024
  0
LINE
  5
C6
100
AcDbEntity
  8
0
  6
ByLayer
 62
  256
370
   -1
100
AcDbLine
 10
-6.724515088316629
 20
-0.8282502199389024
 11
-6.034515088316624
 21
-0.8282502199389024
  0
LINE
  5
C7
100
AcDbEntity
  8
0
  6
ByLayer
 62
  256
370
   -1
100
AcDbLine
 10
-6.034515088316624
 20
-0.8282502199389024
 11
-6.034515088316624
 21
-0.7102502199389022
  0
LINE
  5
C8
100
AcDbEntity
  8
0
  6
ByLayer
 62
  256
370
   -1
100
AcDbLine
 10
-6.034515088316624
 20
-0.7102502199389022
 11
-5.34451508831663
 21
-0.7102502199389022
  0
LINE
  5
C9
100
AcDbEntity
  8
0
  6
ByLayer
 62
  256
370
   -1
100
AcDbLine
 10
-5.34451508831663
 20
-0.7102502199389022
 11
-5.34451508831663
 21
-0.8282502199389024
  0
LINE
  5
CA
100
AcDbEntity
  8
0
  6
ByLayer
 62
  256
370
   -1
100
AcDbLine
 10
-5.34451508831663
 20
-0.8282502199389024
 11
-4.654515088316624
 21
-0.8282502199389024
  0
LINE
  5
CB
100
AcDbEntity
  8
0
  6
ByLayer
 62
  256
370
   -1
100
AcDbLine
 10
-4.654515088316624
 20
-0.8282502199389024
 11
-4.654515088316624
 21
-0.7102502199389022
  0
LINE
  5
CC
100
AcDbEntity
  8
0
  6
ByLayer
 62
  256
370
   -1
100
AcDbLine
 10
-4.654515088316624
 20
-0.7102502199389022
 11
-3.964515088316618
 21
-0.7102502199389022
  0
LINE
  5
CD
100
AcDbEntity
  8
0
  6
ByLayer
 62
  256
370
   -1
100
AcDbLine
 10
-3.964515088316618
 20
-0.7102502199389022
 11
-3.964515088316618
 21
-0.8282502199389024
  0
LINE
  5
CE
100
AcDbEntity
  8
0
  6
ByLayer
 62
  256
370
   -1
100
AcDbLine
 10
-3.964515088316618
 20
-0.8282502199389024
 11
-3.274515088316624
 21
-0.8282502199389024
  0
LINE
  5
CF
100
AcDbEntity
  8
0
  6
ByLayer
 62
  256
370
   -1
100
AcDbLine
 10
-3.274515088316624
 20
-0.8282502199389024
 11
-3.274515088316624
 21
-0.7102502199389022
  0
LINE
  5
D0
100
AcDbEntity
  8
0
  6
ByLayer
 62
  256
370
   -1
100
AcDbLine
 10
-3.274515088316624
 20
-0.7102502199389022
 11
-2.584515088316619
 21
-0.7102502199389022
  0
LINE
  5
D1
100
AcDbEntity
  8
0
  6
ByLayer
 62
  256
370
   -1
100
AcDbLine
 10
-2.584515088316619
 20
-0.7102502199389022
 11
-2.584515088316619
 21
-0.8282502199389024
  0
LINE
  5
D2
100
AcDbEntity
  8
0
  6
ByLayer
 62
  256
370
   -1
100
AcDbLine
 10
-2.584515088316619
 20
-0.8282502199389024
 11
-1.894515088316624
 21
-0.8282502199389024
  0
LINE
  5
D3
100
AcDbEntity
  8
0
  6
ByLayer
 62
  256
370
   -1
100
AcDbLine
 10
-1.894515088316624
 20
-0.8282502199389024
 11
-1.894515088316624
 21
-0.7102502199389022
  0
LINE
  5
D4
100
AcDbEntity
  8
0
  6
ByLayer
 62
  256
370
   -1
100
AcDbLine
 10
-1.894515088316624
 20
-0.7102502199389022
 11
-1.204515088316619
 21
-0.7102502199389022
  0
LINE
  5
D5
100
AcDbEntity
  8
0
  6
ByLayer
 62
  256
370
   -1
100
AcDbLine
 10
-1.204515088316619
 20
-0.7102502199389022
 11
-1.204515088316619
 21
-0.8282502199389024
  0
LINE
  5
D6
100
AcDbEntity
  8
0
  6
ByLayer
 62
  256
370
   -1
100
AcDbLine
 10
-1.204515088316619
 20
-0.8282502199389024
 11
-1.057515088316624
 21
-0.8282502199389024
  0
LINE
  5
D7
100
AcDbEntity
  8
0
  6
ByLayer
 62
  256
370
   -1
100
AcDbLine
 10
-1.057515088316624
 20
-0.8282502199389024
 11
-1.057515088316624
 21
-0.7102502199389022
  0
LINE
  5
D8
100
AcDbEntity
  8
0
  6
ByLayer
 62
  256
370
   -1
100
AcDbLine
 10
-1.057515088316624
 20
-0.7102502199389022
 11
-1.057515088316624
 21
0.07674978006109695
  0
LINE
  5
D9
100
AcDbEntity
  8
0
  6
ByLayer
 62
  256
370
   -1
100
AcDbLine
 10
-1.057515088316624
 20
0.07674978006109695
 11
-0.9395150883166297
 21
0.07674978006109695
  0
LINE
  5
DA
100
AcDbEntity
  8
0
  6
ByLayer
 62
  256
370
   -1
100
AcDbLine
 10
-0.9395150883166297
 20
0.07674978006109695
 11
-0.9395150883166297
 21
0.7667497800610967
  0
LINE
  5
DB
100
AcDbEntity
  8
0
  6
ByLayer
 62
  256
370
   -1
100
AcDbLine
 10
-0.9395150883166297
 20
0.7667497800610967
 11
-1.057515088316624
 21
0.7667497800610967
  0
LINE
  5
DC
100
AcDbEntity
  8
0
  6
ByLayer
 62
  256
370
   -1
100
AcDbLine
 10
-1.057515088316624
 20
0.7667497800610967
 11
-1.057515088316624
 21
1.553749780061097
  0
LINE
  5
DD
100
AcDbEntity
  8
0
  6
ByLayer
 62
  256
370
   -1
100
AcDbLine
 10
-1.057515088316624
 20
1.553749780061097
 11
-1.057515088316624
 21
1.671749780061097
  0
LINE
  5
DE
100
AcDbEntity
  8
0
  6
ByLayer
 62
  256
370
   -1
100
AcDbLine
 10
-5.439515088316622
 20
4.289749780061099
 11
-5.557515088316627
 21
4.289749780061099
  0
LINE
  5
DF
100
AcDbEntity
  8
0
  6
ByLayer
 62
  256
370
   -1
100
AcDbLine
 10
-5.557515088316627
 20
4.289749780061099
 11
-6.214515088316626
 21
4.289749780061099
  0
LINE
  5
E0
100
AcDbEntity
  8
0
  6
ByLayer
 62
  256
370
   -1
100
AcDbLine
 10
-6.214515088316626
 20
4.289749780061099
 11
-6.214515088316626
 21
4.171749780061099
  0
LINE
  5
E1
100
AcDbEntity
  8
0
  6
ByLayer
 62
  256
370
   -1
100
AcDbLine
 10
-6.214515088316626
 20
4.171749780061099
 11
-6.90451508831662
 21
4.171749780061099
  0
LINE
  5
E2
100
AcDbEntity
  8
0
  6
ByLayer
 62
  256
370
   -1
100
AcDbLine
 10
-6.90451508831662
 20
4.171749780061099
 11
-6.90451508831662
 21
4.289749780061099
  0
LINE
  5
E3
100
AcDbEntity
  8
0
  6
ByLayer
 62
  256
370
   -1
100
AcDbLine
 10
-6.90451508831662
 20
4.289749780061099
 11
-7.594515088316625
 21
4.289749780061099
  0
LINE
  5
E4
100
AcDbEntity
  8
0
  6
ByLayer
 62
  256
370
   -1
100
AcDbLine
 10
-7.594515088316625
 20
4.289749780061099
 11
-7.594515088316625
 21
4.171749780061099
  0
LINE
  5
E5
100
AcDbEntity
  8
0
  6
ByLayer
 62
  256
370
   -1
100
AcDbLine
 10
-7.594515088316625
 20
4.171749780061099
 11
-8.284515088316619
 21
4.171749780061099
  0
LINE
  5
E6
100
AcDbEntity
  8
0
  6
ByLayer
 62
  256
370
   -1
100
AcDbLine
 10
-8.284515088316619
 20
4.171749780061099
 11
-8.284515088316619
 21
4.289749780061099
  0
LINE
  5
E7
100
AcDbEntity
  8
0
  6
ByLayer
 62
  256
370
   -1
100
AcDbLine
 10
-8.284515088316619
 20
4.289749780061099
 11
-8.974515088316625
 21
4.289749780061099
  0
LINE
  5
E8
100
AcDbEntity
  8
0
  6
ByLayer
 62
  256
370
   -1
100
AcDbLine
 10
-8.974515088316625
 20
4.289749780061099
 11
-8.974515088316625
 21
4.171749780061099
  0
LINE
  5
E9
100
AcDbEntity
  8
0
  6
ByLayer
 62
  256
370
   -1
100
AcDbLine
 10
-8.974515088316625
 20
4.171749780061099
 11
-9.66451508831662
 21
4.171749780061099
  0
LINE
  5
EA
100
AcDbEntity
  8
0
  6
ByLayer
 62
  256
370
   -1
100
AcDbLine
 10
-9.66451508831662
 20
4.171749780061099
 11
-9.66451508831662
 21
4.289749780061099
  0
LINE
  5
EB
100
AcDbEntity
  8
0
  6
ByLayer
 62
  256
370
   -1
100
AcDbLine
 10
-9.66451508831662
 20
4.289749780061099
 11
-10.32151508831663
 21
4.289749780061099
  0
LINE
  5
EC
100
AcDbEntity
  8
0
  6
ByLayer
 62
  256
370
   -1
100
AcDbLine
 10
-10.32151508831663
 20
4.289749780061099
 11
-10.43951508831662
 21
4.289749780061099
  0
LINE
  5
ED
100
AcDbEntity
  8
0
  6
ByLayer
 62
  256
370
   -1
100
AcDbLine
 10
-10.43951508831662
 20
4.289749780061099
 11
-10.43951508831662
 21
4.171749780061099
  0
LINE
  5
EE
100
AcDbEntity
  8
0
  6
ByLayer
 62
  256
370
   -1
100
AcDbLine
 10
-10.43951508831662
 20
4.171749780061099
 11
-10.43951508831662
 21
3.384749780061098
  0
LINE
  5
EF
100
AcDbEntity
  8
0
  6
ByLayer
 62
  256
370
   -1
100
AcDbLine
 10
-10.43951508831662
 20
3.384749780061098
 11
-10.32151508831663
 21
3.384749780061098
  0
LINE
  5
F0
100
AcDbEntity
  8
0
  6
ByLayer
 62
  256
370
   -1
100
AcDbLine
 10
-10.32151508831663
 20
3.384749780061098
 11
-10.32151508831663
 21
2.694749780061098
  0
LINE
  5
F1
100
AcDbEntity
  8
0
  6
ByLayer
 62
  256
370
   -1
100
AcDbLine
 10
-10.32151508831663
 20
2.694749780061098
 11
-10.43951508831662
 21
2.694749780061098
  0
LINE
  5
F2
100
AcDbEntity
  8
0
  6
ByLayer
 62
  256
370
   -1
100
AcDbLine
 10
-10.43951508831662
 20
2.694749780061098
 11
-10.43951508831662
 21
1.907749780061097
  0
LINE
  5
F3
100
AcDbEntity
  8
0
  6
ByLayer
 62
  256
370
   -1
100
AcDbLine
 10
-10.43951508831662
 20
1.907749780061097
 11
-10.43951508831662
 21
1.789749780061097
  0
LINE
  5
F4
100
AcDbEntity
  8
0
  6
ByLayer
 62
  256
370
   -1
100
AcDbLine
 10
-10.43951508831662
 20
1.789749780061097
 11
-10.32151508831663
 21
1.789749780061097
  0
LINE
  5
F5
100
AcDbEntity
  8
0
  6
ByLayer
 62
  256
370
   -1
100
AcDbLine
 10
-10.32151508831663
 20
1.789749780061097
 11
-9.66451508831662
 21
1.789749780061097
  0
LINE
  5
F6
100
AcDbEntity
  8
0
  6
ByLayer
 62
  256
370
   -1
100
AcDbLine
 10
-9.66451508831662
 20
1.789749780061097
 11
-9.66451508831662
 21
1.907749780061097
  0
LINE
  5
F7
100
AcDbEntity
  8
0
  6
ByLayer
 62
  256
370
   -1
100
AcDbLine
 10
-9.66451508831662
 20
1.907749780061097
 11
-8.974515088316625
 21
1.907749780061097
  0
LINE
  5
F8
100
AcDbEntity
  8
0
  6
ByLayer
 62
  256
370
   -1
100
AcDbLine
 10
-8.974515088316625
 20
1.907749780061097
 11
-8.974515088316625
 21
1.789749780061097
  0
LINE
  5
F9
100
AcDbEntity
  8
0
  6
ByLayer
 62
  256
370
   -1
100
AcDbLine
 10
-8.974515088316625
 20
1.789749780061097
 11
-8.284515088316619
 21
1.789749780061097
  0
LINE
  5
FA
100
AcDbEntity
  8
0
  6
ByLayer
 62
  256
370
   -1
100
AcDbLine
 10
-8.284515088316619
 20
1.789749780061097
 11
-8.284515088316619
 21
1.907749780061097
  0
LINE
  5
FB
100
AcDbEntity
  8
0
  6
ByLayer
 62
  256
370
   -1
100
AcDbLine
 10
-8.284515088316619
 20
1.907749780061097
 11
-7.594515088316625
 21
1.907749780061097
  0
LINE
  5
FC
100
AcDbEntity
  8
0
  6
ByLayer
 62
  256
370
   -1
100
AcDbLine
 10
-7.594515088316625
 20
1.907749780061097
 11
-7.594515088316625
 21
1.789749780061097
  0
LINE
  5
FD
100
AcDbEntity
  8
0
  6
ByLayer
 62
  256
370
   -1
100
AcDbLine
 10
-7.594515088316625
 20
1.789749780061097
 11
-6.90451508831662
 21
1.789749780061097
  0
LINE
  5
FE
100
AcDbEntity
  8
0
  6
ByLayer
 62
  256
370
   -1
100
AcDbLine
 10
-6.90451508831662
 20
1.789749780061097
 11
-6.90451508831662
 21
1.907749780061097
  0
LINE
  5
FF
100
AcDbEntity
  8
0
  6
ByLayer
 62
  256
370
   -1
100
AcDbLine
 10
-6.90451508831662
 20
1.907749780061097
 11
-6.214515088316626
 21
1.907749780061097
  0
LINE
  5
100
100
AcDbEntity
  8
0
  6
ByLayer
 62
  256
370
   -1
100
AcDbLine
 10
-6.214515088316626
 20
1.907749780061097
 11
-6.214515088316626
 21
1.789749780061097
  0
LINE
  5
101
100
AcDbEntity
  8
0
  6
ByLayer
 62
  256
370
   -1
100
AcDbLine
 10
-6.214515088316626
 20
1.789749780061097
 11
-5.557515088316627
 21
1.789749780061097
  0
LINE
  5
102
100
AcDbEntity
  8
0
  6
ByLayer
 62
  256
370
   -1
100
AcDbLine
 10
-5.557515088316627
 20
1.789749780061097
 11
-5.439515088316622
 21
1.789749780061097
  0
LINE
  5
103
100
AcDbEntity
  8
0
  6
ByLayer
 62
  256
370
   -1
100
AcDbLine
 10
-5.439515088316622
 20
1.789749780061097
 11
-5.439515088316622
 21
1.907749780061097
  0
LINE
  5
104
100
AcDbEntity
  8
0
  6
ByLayer
 62
  256
370
   -1
100
AcDbLine
 10
-5.439515088316622
 20
1.907749780061097
 11
-5.439515088316622
 21
2.694749780061098
  0
LINE
  5
105
100
AcDbEntity
  8
0
  6
ByLayer
 62
  256
370
   -1
100
AcDbLine
 10
-5.439515088316622
 20
2.694749780061098
 11
-5.557515088316627
 21
2.694749780061098
  0
LINE
  5
106
100
AcDbEntity
  8
0
  6
ByLayer
 62
  256
370
   -1
100
AcDbLine
 10
-5.557515088316627
 20
2.694749780061098
 11
-5.557515088316627
 21
3.384749780061098
  0
LINE
  5
107
100
AcDbEntity
  8
0
  6
ByLayer
 62
  256
370
   -1
100
AcDbLine
 10
-5.557515088316627
 20
3.384749780061098
 11
-5.439515088316622
 21
3.384749780061098
  0
LINE
  5
108
100
AcDbEntity
  8
0
  6
ByLayer
 62
  256
370
   -1
100
AcDbLine
 10
-5.439515088316622
 20
3.384749780061098
 11
-5.439515088316622
 21
4.171749780061099
  0
LINE
  5
109
100
AcDbEntity
  8
0
  6
ByLayer
 62
  256
370
   -1
100
AcDbLine
 10
-5.439515088316622
 20
4.171749780061099
 11
-5.439515088316622
 21
4.289749780061099
  0
LINE
  5
10A
100
AcDbEntity
  8
0
  6
ByLayer
 62
  256
370
   -1
100
AcDbLine
 10
-5.439515088316622
 20
6.907749780061097
 11
-5.557515088316627
 21
6.907749780061097
  0
LINE
  5
10B
100
AcDbEntity
  8
0
  6
ByLayer
 62
  256
370
   -1
100
AcDbLine
 10
-5.557515088316627
 20
6.907749780061097
 11
-6.214515088316626
 21
6.907749780061097
  0
LINE
  5
10C
100
AcDbEntity
  8
0
  6
ByLayer
 62
  256
370
   -1
100
AcDbLine
 10
-6.214515088316626
 20
6.907749780061097
 11
-6.214515088316626
 21
6.789749780061099
  0
LINE
  5
10D
100
AcDbEntity
  8
0
  6
ByLayer
 62
  256
370
   -1
100
AcDbLine
 10
-6.214515088316626
 20
6.789749780061099
 11
-6.90451508831662
 21
6.789749780061099
  0
LINE
  5
10E
100
AcDbEntity
  8
0
  6
ByLayer
 62
  256
370
   -1
100
AcDbLine
 10
-6.90451508831662
 20
6.789749780061099
 11
-6.90451508831662
 21
6.907749780061097
  0
LINE
  5
10F
100
AcDbEntity
  8
0
  6
ByLayer
 62
  256
370
   -1
100
AcDbLine
 10
-6.90451508831662
 20
6.907749780061097
 11
-7.594515088316625
 21
6.907749780061097
  0
LINE
  5
110
100
AcDbEntity
  8
0
  6
ByLayer
 62
  256
370
   -1
100
AcDbLine
 10
-7.594515088316625
 20
6.907749780061097
 11
-7.594515088316625
 21
6.789749780061099
  0
LINE
  5
111
100
AcDbEntity
  8
0
  6
ByLayer
 62
  256
370
   -1
100
AcDbLine
 10
-7.594515088316625
 20
6.789749780061099
 11
-8.284515088316619
 21
6.789749780061099
  0
LINE
  5
112
100
AcDbEntity
  8
0
  6
ByLayer
 62
  256
370
   -1
100
AcDbLine
 10
-8.284515088316619
 20
6.789749780061099
 11
-8.284515088316619
 21
6.907749780061097
  0
LINE
  5
113
100
AcDbEntity
  8
0
  6
ByLayer
 62
  256
370
   -1
100
AcDbLine
 10
-8.284515088316619
 20
6.907749780061097
 11
-8.974515088316625
 21
6.907749780061097
  0
LINE
  5
114
100
AcDbEntity
  8
0
  6
ByLayer
 62
  256
370
   -1
100
AcDbLine
 10
-8.974515088316625
 20
6.907749780061097
 11
-8.974515088316625
 21
6.789749780061099
  0
LINE
  5
115
100
AcDbEntity
  8
0
  6
ByLayer
 62
  256
370
   -1
100
AcDbLine
 10
-8.974515088316625
 20
6.789749780061099
 11
-9.66451508831662
 21
6.789749780061099
  0
LINE
  5
116
100
AcDbEntity
  8
0
  6
ByLayer
 62
  256
370
   -1
100
AcDbLine
 10
-9.66451508831662
 20
6.789749780061099
 11
-9.66451508831662
 21
6.907749780061097
  0
LINE
  5
117
100
AcDbEntity
  8
0
  6
ByLayer
 62
  256
370
   -1
100
AcDbLine
 10
-9.66451508831662
 20
6.907749780061097
 11
-10.32151508831663
 21
6.907749780061097
  0
LINE
  5
118
100
AcDbEntity
  8
0
  6
ByLayer
 62
  256
370
   -1
100
AcDbLine
 10
-10.32151508831663
 20
6.907749780061097
 11
-10.43951508831662
 21
6.907749780061097
  0
LINE
  5
119
100
AcDbEntity
  8
0
  6
ByLayer
 62
  256
370
   -1
100
AcDbLine
 10
-10.43951508831662
 20
6.907749780061097
 11
-10.43951508831662
 21
6.789749780061099
  0
LINE
  5
11A
100
AcDbEntity
  8
0
  6
ByLayer
 62
  256
370
   -1
100
AcDbLine
 10
-10.43951508831662
 20
6.789749780061099
 11
-10.43951508831662
 21
6.0027497800611
  0
LINE
  5
11B
100
AcDbEntity
  8
0
  6
ByLayer
 62
  256
370
   -1
100
AcDbLine
 10
-10.43951508831662
 20
6.0027497800611
 11
-10.32151508831663
 21
6.0027497800611
  0
LINE
  5
11C
100
AcDbEntity
  8
0
  6
ByLayer
 62
  256
370
   -1
100
AcDbLine
 10
-10.32151508831663
 20
6.0027497800611
 11
-10.32151508831663
 21
5.312749780061099
  0
LINE
  5
11D
100
AcDbEntity
  8
0
  6
ByLayer
 62
  256
370
   -1
100
AcDbLine
 10
-10.32151508831663
 20
5.312749780061099
 11
-10.43951508831662
 21
5.312749780061099
  0
LINE
  5
11E
100
AcDbEntity
  8
0
  6
ByLayer
 62
  256
370
   -1
100
AcDbLine
 10
-10.43951508831662
 20
5.312749780061099
 11
-10.43951508831662
 21
4.525749780061098
  0
LINE
  5
11F
100
AcDbEntity
  8
0
  6
ByLayer
 62
  256
370
   -1
100
AcDbLine
 10
-10.43951508831662
 20
4.525749780061098
 11
-10.43951508831662
 21
4.407749780061098
  0
LINE
  5
120
100
AcDbEntity
  8
0
  6
ByLayer
 62
  256
370
   -1
100
AcDbLine
 10
-10.43951508831662
 20
4.407749780061098
 11
-10.32151508831663
 21
4.407749780061098
  0
LINE
  5
121
100
AcDbEntity
  8
0
  6
ByLayer
 62
  256
370
   -1
100
AcDbLine
 10
-10.32151508831663
 20
4.407749780061098
 11
-9.66451508831662
 21
4.407749780061098
  0
LINE
  5
122
100
AcDbEntity
  8
0
  6
ByLayer
 62
  256
370
   -1
100
AcDbLine
 10
-9.66451508831662
 20
4.407749780061098
 11
-9.66451508831662
 21
4.525749780061098
  0
LINE
  5
123
100
AcDbEntity
  8
0
  6
ByLayer
 62
  256
370
   -1
100
AcDbLine
 10
-9.66451508831662
 20
4.525749780061098
 11
-8.974515088316625
 21
4.525749780061098
  0
LINE
  5
124
100
AcDbEntity
  8
0
  6
ByLayer
 62
  256
370
   -1
100
AcDbLine
 10
-8.974515088316625
 20
4.525749780061098
 11
-8.974515088316625
 21
4.407749780061098
  0
LINE
  5
125
100
AcDbEntity
  8
0
  6
ByLayer
 62
  256
370
   -1
100
AcDbLine
 10
-8.974515088316625
 20
4.407749780061098
 11
-8.284515088316619
 21
4.407749780061098
  0
LINE
  5
126
100
AcDbEntity
  8
0
  6
ByLayer
 62
  256
370
   -1
100
AcDbLine
 10
-8.284515088316619
 20
4.407749780061098
 11
-8.284515088316619
 21
4.525749780061098
  0
LINE
  5
127
100
AcDbEntity
  8
0
  6
ByLayer
 62
  256
370
   -1
100
AcDbLine
 10
-8.284515088316619
 20
4.525749780061098
 11
-7.594515088316625
 21
4.525749780061098
  0
LINE
  5
128
100
AcDbEntity
  8
0
  6
ByLayer
 62
  256
370
   -1
100
AcDbLine
 10
-7.594515088316625
 20
4.525749780061098
 11
-7.594515088316625
 21
4.407749780061098
  0
LINE
  5
129
100
AcDbEntity
  8
0
  6
ByLayer
 62
  256
370
   -1
100
AcDbLine
 10
-7.594515088316625
 20
4.407749780061098
 11
-6.90451508831662
 21
4.407749780061098
  0
LINE
  5
12A
100
AcDbEntity
  8
0
  6
ByLayer
 62
  256
370
   -1
100
AcDbLine
 10
-6.90451508831662
 20
4.407749780061098
 11
-6.90451508831662
 21
4.525749780061098
  0
LINE
  5
12B
100
AcDbEntity
  8
0
  6
ByLayer
 62
  256
370
   -1
100
AcDbLine
 10
-6.90451508831662
 20
4.525749780061098
 11
-6.214515088316626
 21
4.525749780061098
  0
LINE
  5
12C
100
AcDbEntity
  8
0
  6
ByLayer
 62
  256
370
   -1
100
AcDbLine
 10
-6.214515088316626
 20
4.525749780061098
 11
-6.214515088316626
 21
4.407749780061098
  0
LINE
  5
12D
100
AcDbEntity
  8
0
  6
ByLayer
 62
  256
370
   -1
100
AcDbLine
 10
-6.214515088316626
 20
4.407749780061098
 11
-5.557515088316627
 21
4.407749780061098
  0
LINE
  5
12E
100
AcDbEntity
  8
0
  6
ByLayer
 62
  256
370
   -1
100
AcDbLine
 10
-5.557515088316627
 20
4.407749780061098
 11
-5.439515088316622
 21
4.407749780061098
  0
LINE
  5
12F
100
AcDbEntity
  8
0
  6
ByLayer
 62
  256
370
   -1
100
AcDbLine
 10
-5.439515088316622
 20
4.407749780061098
 11
-5.439515088316622
 21
4.525749780061098
  0
LINE
  5
130
100
AcDbEntity
  8
0
  6
ByLayer
 62
  256
370
   -1
100
AcDbLine
 10
-5.439515088316622
 20
4.525749780061098
 11
-5.439515088316622
 21
5.312749780061099
  0
LINE
  5
131
100
AcDbEntity
  8
0
  6
ByLayer
 62
  256
370
   -1
100
AcDbLine
 10
-5.439515088316622
 20
5.312749780061099
 11
-5.557515088316627
 21
5.312749780061099
  0
LINE
  5
132
100
AcDbEntity
  8
0
  6
ByLayer
 62
  256
370
   -1
100
AcDbLine
 10
-5.557515088316627
 20
5.312749780061099
 11
-5.557515088316627
 21
6.0027497800611
  0
LINE
  5
133
100
AcDbEntity
  8
0
  6
ByLayer
 62
  256
370
   -1
100
AcDbLine
 10
-5.557515088316627
 20
6.0027497800611
 11
-5.439515088316622
 21
6.0027497800611
  0
LINE
  5
134
100
AcDbEntity
  8
0
  6
ByLayer
 62
  256
370
   -1
100
AcDbLine
 10
-5.439515088316622
 20
6.0027497800611
 11
-5.439515088316622
 21
6.789749780061099
  0
LINE
  5
135
100
AcDbEntity
  8
0
  6
ByLayer
 62
  256
370
   -1
100
AcDbLine
 10
-5.439515088316622
 20
6.789749780061099
 11
-5.439515088316622
 21
6.907749780061097
  0
LINE
  5
136
100
AcDbEntity
  8
0
  6
ByLayer
 62
  256
370
   -1
100
AcDbLine
 10
8.413484911683382
 20
1.553749780061097
 11
7.723484911683375
 21
1.553749780061097
  0
LINE
  5
137
100
AcDbEntity
  8
0
  6
ByLayer
 62
  256
370
   -1
100
AcDbLine
 10
7.723484911683375
 20
1.553749780061097
 11
7.723484911683375
 21
1.435749780061097
  0
LINE
  5
138
100
AcDbEntity
  8
0
  6
ByLayer
 62
  256
370
   -1
100
AcDbLine
 10
7.723484911683375
 20
1.435749780061097
 11
7.033484911683381
 21
1.435749780061097
  0
LINE
  5
139
100
AcDbEntity
  8
0
  6
ByLayer
 62
  256
370
   -1
100
AcDbLine
 10
7.033484911683381
 20
1.435749780061097
 11
7.033484911683381
 21
1.553749780061097
  0
LINE
  5
13A
100
AcDbEntity
  8
0
  6
ByLayer
 62
  256
370
   -1
100
AcDbLine
 10
7.033484911683381
 20
1.553749780061097
 11
6.343484911683376
 21
1.553749780061097
  0
LINE
  5
13B
100
AcDbEntity
  8
0
  6
ByLayer
 62
  256
370
   -1
100
AcDbLine
 10
6.343484911683376
 20
1.553749780061097
 11
6.343484911683376
 21
1.435749780061097
  0
LINE
  5
13C
100
AcDbEntity
  8
0
  6
ByLayer
 62
  256
370
   -1
100
AcDbLine
 10
6.343484911683376
 20
1.435749780061097
 11
5.653484911683369
 21
1.435749780061097
  0
LINE
  5
13D
100
AcDbEntity
  8
0
  6
ByLayer
 62
  256
370
   -1
100
AcDbLine
 10
5.653484911683369
 20
1.435749780061097
 11
5.653484911683369
 21
1.553749780061097
  0
LINE
  5
13E
100
AcDbEntity
  8
0
  6
ByLayer
 62
  256
370
   -1
100
AcDbLine
 10
5.653484911683369
 20
1.553749780061097
 11
4.963484911683375
 21
1.553749780061097
  0
LINE
  5
13F
100
AcDbEntity
  8
0
  6
ByLayer
 62
  256
370
   -1
100
AcDbLine
 10
4.963484911683375
 20
1.553749780061097
 11
4.963484911683375
 21
1.435749780061097
  0
LINE
  5
140
100
AcDbEntity
  8
0
  6
ByLayer
 62
  256
370
   -1
100
AcDbLine
 10
4.963484911683375
 20
1.435749780061097
 11
4.273484911683381
 21
1.435749780061097
  0
LINE
  5
141
100
AcDbEntity
  8
0
  6
ByLayer
 62
  256
370
   -1
100
AcDbLine
 10
4.273484911683381
 20
1.435749780061097
 11
4.273484911683381
 21
1.553749780061097
  0
LINE
  5
142
100
AcDbEntity
  8
0
  6
ByLayer
 62
  256
370
   -1
100
AcDbLine
 10
4.273484911683381
 20
1.553749780061097
 11
3.583484911683376
 21
1.553749780061097
  0
LINE
  5
143
100
AcDbEntity
  8
0
  6
ByLayer
 62
  256
370
   -1
100
AcDbLine
 10
3.583484911683376
 20
1.553749780061097
 11
3.583484911683376
 21
1.435749780061097
  0
LINE
  5
144
100
AcDbEntity
  8
0
  6
ByLayer
 62
  256
370
   -1
100
AcDbLine
 10
3.583484911683376
 20
1.435749780061097
 11
2.89348491168337
 21
1.435749780061097
  0
LINE
  5
145
100
AcDbEntity
  8
0
  6
ByLayer
 62
  256
370
   -1
100
AcDbLine
 10
2.89348491168337
 20
1.435749780061097
 11
2.89348491168337
 21
1.553749780061097
  0
LINE
  5
146
100
AcDbEntity
  8
0
  6
ByLayer
 62
  256
370
   -1
100
AcDbLine
 10
2.89348491168337
 20
1.553749780061097
 11
2.203484911683376
 21
1.553749780061097
  0
LINE
  5
147
100
AcDbEntity
  8
0
  6
ByLayer
 62
  256
370
   -1
100
AcDbLine
 10
2.203484911683376
 20
1.553749780061097
 11
2.203484911683376
 21
1.435749780061097
  0
LINE
  5
148
100
AcDbEntity
  8
0
  6
ByLayer
 62
  256
370
   -1
100
AcDbLine
 10
2.203484911683376
 20
1.435749780061097
 11
1.51348491168337
 21
1.435749780061097
  0
LINE
  5
149
100
AcDbEntity
  8
0
  6
ByLayer
 62
  256
370
   -1
100
AcDbLine
 10
1.51348491168337
 20
1.435749780061097
 11
1.51348491168337
 21
1.553749780061097
  0
LINE
  5
14A
100
AcDbEntity
  8
0
  6
ByLayer
 62
  256
370
   -1
100
AcDbLine
 10
1.51348491168337
 20
1.553749780061097
 11
0.823484911683376
 21
1.553749780061097
  0
LINE
  5
14B
100
AcDbEntity
  8
0
  6
ByLayer
 62
  256
370
   -1
100
AcDbLine
 10
0.823484911683376
 20
1.553749780061097
 11
0.823484911683376
 21
1.435749780061097
  0
LINE
  5
14C
100
AcDbEntity
  8
0
  6
ByLayer
 62
  256
370
   -1
100
AcDbLine
 10
0.823484911683376
 20
1.435749780061097
 11
0.1334849116833707
 21
1.435749780061097
  0
LINE
  5
14D
100
AcDbEntity
  8
0
  6
ByLayer
 62
  256
370
   -1
100
AcDbLine
 10
0.1334849116833707
 20
1.435749780061097
 11
0.1334849116833707
 21
1.553749780061097
  0
LINE
  5
14E
100
AcDbEntity
  8
0
  6
ByLayer
 62
  256
370
   -1
100
AcDbLine
 10
0.1334849116833707
 20
1.553749780061097
 11
-0.5565150883166234
 21
1.553749780061097
  0
LINE
  5
14F
100
AcDbEntity
  8
0
  6
ByLayer
 62
  256
370
   -1
100
AcDbLine
 10
-0.5565150883166234
 20
1.553749780061097
 11
-0.5565150883166234
 21
1.435749780061097
  0
LINE
  5
150
100
AcDbEntity
  8
0
  6
ByLayer
 62
  256
370
   -1
100
AcDbLine
 10
-0.5565150883166234
 20
1.435749780061097
 11
-0.7035150883166184
 21
1.435749780061097
  0
LINE
  5
151
100
AcDbEntity
  8
0
  6
ByLayer
 62
  256
370
   -1
100
AcDbLine
 10
-0.7035150883166184
 20
1.435749780061097
 11
-0.7035150883166184
 21
0.7787497800610987
  0
LINE
  5
152
100
AcDbEntity
  8
0
  6
ByLayer
 62
  256
370
   -1
100
AcDbLine
 10
-0.7035150883166184
 20
0.7787497800610987
 11
-0.821515088316624
 21
0.7787497800610987
  0
LINE
  5
153
100
AcDbEntity
  8
0
  6
ByLayer
 62
  256
370
   -1
100
AcDbLine
 10
-0.821515088316624
 20
0.7787497800610987
 11
-0.821515088316624
 21
0.08874978006109896
  0
LINE
  5
154
100
AcDbEntity
  8
0
  6
ByLayer
 62
  256
370
   -1
100
AcDbLine
 10
-0.821515088316624
 20
0.08874978006109896
 11
-0.7035150883166184
 21
0.08874978006109896
  0
LINE
  5
155
100
AcDbEntity
  8
0
  6
ByLayer
 62
  256
370
   -1
100
AcDbLine
 10
-0.7035150883166184
 20
0.08874978006109896
 11
-0.7035150883166184
 21
-0.6012502199389023
  0
LINE
  5
156
100
AcDbEntity
  8
0
  6
ByLayer
 62
  256
370
   -1
100
AcDbLine
 10
-0.7035150883166184
 20
-0.6012502199389023
 11
-0.821515088316624
 21
-0.6012502199389023
  0
LINE
  5
157
100
AcDbEntity
  8
0
  6
ByLayer
 62
  256
370
   -1
100
AcDbLine
 10
-0.821515088316624
 20
-0.6012502199389023
 11
-0.821515088316624
 21
-1.291250219938902
  0
LINE
  5
158
100
AcDbEntity
  8
0
  6
ByLayer
 62
  256
370
   -1
100
AcDbLine
 10
-0.821515088316624
 20
-1.291250219938902
 11
-0.7035150883166184
 21
-1.291250219938902
  0
LINE
  5
159
100
AcDbEntity
  8
0
  6
ByLayer
 62
  256
370
   -1
100
AcDbLine
 10
-0.7035150883166184
 20
-1.291250219938902
 11
-0.7035150883166184
 21
-1.981250219938902
  0
LINE
  5
15A
100
AcDbEntity
  8
0
  6
ByLayer
 62
  256
370
   -1
100
AcDbLine
 10
-0.7035150883166184
 20
-1.981250219938902
 11
-0.821515088316624
 21
-1.981250219938902
  0
LINE
  5
15B
100
AcDbEntity
  8
0
  6
ByLayer
 62
  256
370
   -1
100
AcDbLine
 10
-0.821515088316624
 20
-1.981250219938902
 11
-0.821515088316624
 21
-2.671250219938902
  0
LINE
  5
15C
100
AcDbEntity
  8
0
  6
ByLayer
 62
  256
370
   -1
100
AcDbLine
 10
-0.821515088316624
 20
-2.671250219938902
 11
-0.7035150883166184
 21
-2.671250219938902
  0
LINE
  5
15D
100
AcDbEntity
  8
0
  6
ByLayer
 62
  256
370
   -1
100
AcDbLine
 10
-0.7035150883166184
 20
-2.671250219938902
 11
-0.7035150883166184
 21
-3.328250219938902
  0
LINE
  5
15E
100
AcDbEntity
  8
0
  6
ByLayer
 62
  256
370
   -1
100
AcDbLine
 10
-0.7035150883166184
 20
-3.328250219938902
 11
-0.5565150883166234
 21
-3.328250219938902
  0
LINE
  5
15F
100
AcDbEntity
  8
0
  6
ByLayer
 62
  256
370
   -1
100
AcDbLine
 10
-0.5565150883166234
 20
-3.328250219938902
 11
-0.5565150883166234
 21
-3.446250219938902
  0
LINE
  5
160
100
AcDbEntity
  8
0
  6
ByLayer
 62
  256
370
   -1
100
AcDbLine
 10
-0.5565150883166234
 20
-3.446250219938902
 11
0.1334849116833707
 21
-3.446250219938902
  0
LINE
  5
161
100
AcDbEntity
  8
0
  6
ByLayer
 62
  256
370
   -1
100
AcDbLine
 10
0.1334849116833707
 20
-3.446250219938902
 11
0.1334849116833707
 21
-3.328250219938902
  0
LINE
  5
162
100
AcDbEntity
  8
0
  6
ByLayer
 62
  256
370
   -1
100
AcDbLine
 10
0.1334849116833707
 20
-3.328250219938902
 11
0.823484911683376
 21
-3.328250219938902
  0
LINE
  5
163
100
AcDbEntity
  8
0
  6
ByLayer
 62
  256
370
   -1
100
AcDbLine
 10
0.823484911683376
 20
-3.328250219938902
 11
0.823484911683376
 21
-3.446250219938902
  0
LINE
  5
164
100
AcDbEntity
  8
0
  6
ByLayer
 62
  256
370
   -1
100
AcDbLine
 10
0.823484911683376
 20
-3.446250219938902
 11
1.51348491168337
 21
-3.446250219938902
  0
LINE
  5
165
100
AcDbEntity
  8
0
  6
ByLayer
 62
  256
370
   -1
100
AcDbLine
 10
1.51348491168337
 20
-3.446250219938902
 11
1.51348491168337
 21
-3.328250219938902
  0
LINE
  5
166
100
AcDbEntity
  8
0
  6
ByLayer
 62
  256
370
   -1
100
AcDbLine
 10
1.51348491168337
 20
-3.328250219938902
 11
2.203484911683376
 21
-3.328250219938902
  0
LINE
  5
167
100
AcDbEntity
  8
0
  6
ByLayer
 62
  256
370
   -1
100
AcDbLine
 10
2.203484911683376
 20
-3.328250219938902
 11
2.203484911683376
 21
-3.446250219938902
  0
LINE
  5
168
100
AcDbEntity
  8
0
  6
ByLayer
 62
  256
370
   -1
100
AcDbLine
 10
2.203484911683376
 20
-3.446250219938902
 11
2.89348491168337
 21
-3.446250219938902
  0
LINE
  5
169
100
AcDbEntity
  8
0
  6
ByLayer
 62
  256
370
   -1
100
AcDbLine
 10
2.89348491168337
 20
-3.446250219938902
 11
2.89348491168337
 21
-3.328250219938902
  0
LINE
  5
16A
100
AcDbEntity
  8
0
  6
ByLayer
 62
  256
370
   -1
100
AcDbLine
 10
2.89348491168337
 20
-3.328250219938902
 11
3.583484911683376
 21
-3.328250219938902
  0
LINE
  5
16B
100
AcDbEntity
  8
0
  6
ByLayer
 62
  256
370
   -1
100
AcDbLine
 10
3.583484911683376
 20
-3.328250219938902
 11
3.583484911683376
 21
-3.446250219938902
  0
LINE
  5
16C
100
AcDbEntity
  8
0
  6
ByLayer
 62
  256
370
   -1
100
AcDbLine
 10
3.583484911683376
 20
-3.446250219938902
 11
4.273484911683381
 21
-3.446250219938902
  0
LINE
  5
16D
100
AcDbEntity
  8
0
  6
ByLayer
 62
  256
370
   -1
100
AcDbLine
 10
4.273484911683381
 20
-3.446250219938902
 11
4.273484911683381
 21
-3.328250219938902
  0
LINE
  5
16E
100
AcDbEntity
  8
0
  6
ByLayer
 62
  256
370
   -1
100
AcDbLine
 10
4.273484911683381
 20
-3.328250219938902
 11
4.963484911683375
 21
-3.328250219938902
  0
LINE
  5
16F
100
AcDbEntity
  8
0
  6
ByLayer
 62
  256
370
   -1
100
AcDbLine
 10
4.963484911683375
 20
-3.328250219938902
 11
4.963484911683375
 21
-3.446250219938902
  0
LINE
  5
170
100
AcDbEntity
  8
0
  6
ByLayer
 62
  256
370
   -1
100
AcDbLine
 10
4.963484911683375
 20
-3.446250219938902
 11
5.653484911683369
 21
-3.446250219938902
  0
LINE
  5
171
100
AcDbEntity
  8
0
  6
ByLayer
 62
  256
370
   -1
100
AcDbLine
 10
5.653484911683369
 20
-3.446250219938902
 11
5.653484911683369
 21
-3.328250219938902
  0
LINE
  5
172
100
AcDbEntity
  8
0
  6
ByLayer
 62
  256
370
   -1
100
AcDbLine
 10
5.653484911683369
 20
-3.328250219938902
 11
6.343484911683376
 21
-3.328250219938902
  0
LINE
  5
173
100
AcDbEntity
  8
0
  6
ByLayer
 62
  256
370
   -1
100
AcDbLine
 10
6.343484911683376
 20
-3.328250219938902
 11
6.343484911683376
 21
-3.446250219938902
  0
LINE
  5
174
100
AcDbEntity
  8
0
  6
ByLayer
 62
  256
370
   -1
100
AcDbLine
 10
6.343484911683376
 20
-3.446250219938902
 11
7.033484911683381
 21
-3.446250219938902
  0
LINE
  5
175
100
AcDbEntity
  8
0
  6
ByLayer
 62
  256
370
   -1
100
AcDbLine
 10
7.033484911683381
 20
-3.446250219938902
 11
7.033484911683381
 21
-3.328250219938902
  0
LINE
  5
176
100
AcDbEntity
  8
0
  6
ByLayer
 62
  256
370
   -1
100
AcDbLine
 10
7.033484911683381
 20
-3.328250219938902
 11
7.723484911683375
 21
-3.328250219938902
  0
LINE
  5
177
100
AcDbEntity
  8
0
  6
ByLayer
 62
  256
370
   -1
100
AcDbLine
 10
7.723484911683375
 20
-3.328250219938902
 11
7.723484911683375
 21
-3.446250219938902
  0
LINE
  5
178
100
AcDbEntity
  8
0
  6
ByLayer
 62
  256
370
   -1
100
AcDbLine
 10
7.723484911683375
 20
-3.446250219938902
 11
8.413484911683382
 21
-3.446250219938902
  0
LINE
  5
179
100
AcDbEntity
  8
0
  6
ByLayer
 62
  256
370
   -1
100
AcDbLine
 10
8.413484911683382
 20
-3.446250219938902
 11
8.413484911683382
 21
-3.328250219938902
  0
LINE
  5
17A
100
AcDbEntity
  8
0
  6
ByLayer
 62
  256
370
   -1
100
AcDbLine
 10
8.413484911683382
 20
-3.328250219938902
 11
8.560484911683377
 21
-3.328250219938902
  0
LINE
  5
17B
100
AcDbEntity
  8
0
  6
ByLayer
 62
  256
370
   -1
100
AcDbLine
 10
8.560484911683377
 20
-3.328250219938902
 11
8.560484911683377
 21
-2.671250219938902
  0
LINE
  5
17C
100
AcDbEntity
  8
0
  6
ByLayer
 62
  256
370
   -1
100
AcDbLine
 10
8.560484911683377
 20
-2.671250219938902
 11
8.67848491168337
 21
-2.671250219938902
  0
LINE
  5
17D
100
AcDbEntity
  8
0
  6
ByLayer
 62
  256
370
   -1
100
AcDbLine
 10
8.67848491168337
 20
-2.671250219938902
 11
8.67848491168337
 21
-1.981250219938902
  0
LINE
  5
17E
100
AcDbEntity
  8
0
  6
ByLayer
 62
  256
370
   -1
100
AcDbLine
 10
8.67848491168337
 20
-1.981250219938902
 11
8.560484911683377
 21
-1.981250219938902
  0
LINE
  5
17F
100
AcDbEntity
  8
0
  6
ByLayer
 62
  256
370
   -1
100
AcDbLine
 10
8.560484911683377
 20
-1.981250219938902
 11
8.560484911683377
 21
-1.291250219938902
  0
LINE
  5
180
100
AcDbEntity
  8
0
  6
ByLayer
 62
  256
370
   -1
100
AcDbLine
 10
8.560484911683377
 20
-1.291250219938902
 11
8.67848491168337
 21
-1.291250219938902
  0
LINE
  5
181
100
AcDbEntity
  8
0
  6
ByLayer
 62
  256
370
   -1
100
AcDbLine
 10
8.67848491168337
 20
-1.291250219938902
 11
8.67848491168337
 21
-0.6012502199389023
  0
LINE
  5
182
100
AcDbEntity
  8
0
  6
ByLayer
 62
  256
370
   -1
100
AcDbLine
 10
8.67848491168337
 20
-0.6012502199389023
 11
8.560484911683377
 21
-0.6012502199389023
  0
LINE
  5
183
100
AcDbEntity
  8
0
  6
ByLayer
 62
  256
370
   -1
100
AcDbLine
 10
8.560484911683377
 20
-0.6012502199389023
 11
8.560484911683377
 21
0.08874978006109896
  0
LINE
  5
184
100
AcDbEntity
  8
0
  6
ByLayer
 62
  256
370
   -1
100
AcDbLine
 10
8.560484911683377
 20
0.08874978006109896
 11
8.67848491168337
 21
0.08874978006109896
  0
LINE
  5
185
100
AcDbEntity
  8
0
  6
ByLayer
 62
  256
370
   -1
100
AcDbLine
 10
8.67848491168337
 20
0.08874978006109896
 11
8.67848491168337
 21
0.7787497800610987
  0
LINE
  5
186
100
AcDbEntity
  8
0
  6
ByLayer
 62
  256
370
   -1
100
AcDbLine
 10
8.67848491168337
 20
0.7787497800610987
 11
8.560484911683377
 21
0.7787497800610987
  0
LINE
  5
187
100
AcDbEntity
  8
0
  6
ByLayer
 62
  256
370
   -1
100
AcDbLine
 10
8.560484911683377
 20
0.7787497800610987
 11
8.560484911683377
 21
1.435749780061097
  0
LINE
  5
188
100
AcDbEntity
  8
0
  6
ByLayer
 62
  256
370
   -1
100
AcDbLine
 10
8.560484911683377
 20
1.435749780061097
 11
8.413484911683382
 21
1.435749780061097
  0
LINE
  5
189
100
AcDbEntity
  8
0
  6
ByLayer
 62
  256
370
   -1
100
AcDbLine
 10
8.413484911683382
 20
1.435749780061097
 11
8.413484911683382
 21
1.553749780061097
  0
LINE
  5
18A
100
AcDbEntity
  8
0
  6
ByLayer
 62
  256
370
   -1
100
AcDbLine
 10
8.413484911683382
 20
6.6717497800611
 11
7.723484911683375
 21
6.6717497800611
  0
LINE
  5
18B
100
AcDbEntity
  8
0
  6
ByLayer
 62
  256
370
   -1
100
AcDbLine
 10
7.723484911683375
 20
6.6717497800611
 11
7.723484911683375
 21
6.553749780061096
  0
LINE
  5
18C
100
AcDbEntity
  8
0
  6
ByLayer
 62
  256
370
   -1
100
AcDbLine
 10
7.723484911683375
 20
6.553749780061096
 11
7.033484911683381
 21
6.553749780061096
  0
LINE
  5
18D
100
AcDbEntity
  8
0
  6
ByLayer
 62
  256
370
   -1
100
AcDbLine
 10
7.033484911683381
 20
6.553749780061096
 11
7.033484911683381
 21
6.6717497800611
  0
LINE
  5
18E
100
AcDbEntity
  8
0
  6
ByLayer
 62
  256
370
   -1
100
AcDbLine
 10
7.033484911683381
 20
6.6717497800611
 11
6.343484911683376
 21
6.6717497800611
  0
LINE
  5
18F
100
AcDbEntity
  8
0
  6
ByLayer
 62
  256
370
   -1
100
AcDbLine
 10
6.343484911683376
 20
6.6717497800611
 11
6.343484911683376
 21
6.553749780061096
  0
LINE
  5
190
100
AcDbEntity
  8
0
  6
ByLayer
 62
  256
370
   -1
100
AcDbLine
 10
6.343484911683376
 20
6.553749780061096
 11
5.653484911683369
 21
6.553749780061096
  0
LINE
  5
191
100
AcDbEntity
  8
0
  6
ByLayer
 62
  256
370
   -1
100
AcDbLine
 10
5.653484911683369
 20
6.553749780061096
 11
5.653484911683369
 21
6.6717497800611
  0
LINE
  5
192
100
AcDbEntity
  8
0
  6
ByLayer
 62
  256
370
   -1
100
AcDbLine
 10
5.653484911683369
 20
6.6717497800611
 11
4.963484911683375
 21
6.6717497800611
  0
LINE
  5
193
100
AcDbEntity
  8
0
  6
ByLayer
 62
  256
370
   -1
100
AcDbLine
 10
4.963484911683375
 20
6.6717497800611
 11
4.963484911683375
 21
6.553749780061096
  0
LINE
  5
194
100
AcDbEntity
  8
0
  6
ByLayer
 62
  256
370
   -1
100
AcDbLine
 10
4.963484911683375
 20
6.553749780061096
 11
4.273484911683381
 21
6.553749780061096
  0
LINE
  5
195
100
AcDbEntity
  8
0
  6
ByLayer
 62
  256
370
   -1
100
AcDbLine
 10
4.273484911683381
 20
6.553749780061096
 11
4.273484911683381
 21
6.6717497800611
  0
LINE
  5
196
100
AcDbEntity
  8
0
  6
ByLayer
 62
  256
370
   -1
100
AcDbLine
 10
4.273484911683381
 20
6.6717497800611
 11
3.583484911683376
 21
6.6717497800611
  0
LINE
  5
197
100
AcDbEntity
  8
0
  6
ByLayer
 62
  256
370
   -1
100
AcDbLine
 10
3.583484911683376
 20
6.6717497800611
 11
3.583484911683376
 21
6.553749780061096
  0
LINE
  5
198
100
AcDbEntity
  8
0
  6
ByLayer
 62
  256
370
   -1
100
AcDbLine
 10
3.583484911683376
 20
6.553749780061096
 11
2.89348491168337
 21
6.553749780061096
  0
LINE
  5
199
100
AcDbEntity
  8
0
  6
ByLayer
 62
  256
370
   -1
100
AcDbLine
 10
2.89348491168337
 20
6.553749780061096
 11
2.89348491168337
 21
6.6717497800611
  0
LINE
  5
19A
100
AcDbEntity
  8
0
  6
ByLayer
 62
  256
370
   -1
100
AcDbLine
 10
2.89348491168337
 20
6.6717497800611
 11
2.203484911683376
 21
6.6717497800611
  0
LINE
  5
19B
100
AcDbEntity
  8
0
  6
ByLayer
 62
  256
370
   -1
100
AcDbLine
 10
2.203484911683376
 20
6.6717497800611
 11
2.203484911683376
 21
6.553749780061096
  0
LINE
  5
19C
100
AcDbEntity
  8
0
  6
ByLayer
 62
  256
370
   -1
100
AcDbLine
 10
2.203484911683376
 20
6.553749780061096
 11
1.51348491168337
 21
6.553749780061096
  0
LINE
  5
19D
100
AcDbEntity
  8
0
  6
ByLayer
 62
  256
370
   -1
100
AcDbLine
 10
1.51348491168337
 20
6.553749780061096
 11
1.51348491168337
 21
6.6717497800611
  0
LINE
  5
19E
100
AcDbEntity
  8
0
  6
ByLayer
 62
  256
370
   -1
100
AcDbLine
 10
1.51348491168337
 20
6.6717497800611
 11
0.823484911683376
 21
6.6717497800611
  0
LINE
  5
19F
100
AcDbEntity
  8
0
  6
ByLayer
 62
  256
370
   -1
100
AcDbLine
 10
0.823484911683376
 20
6.6717497800611
 11
0.823484911683376
 21
6.553749780061096
  0
LINE
  5
1A0
100
AcDbEntity
  8
0
  6
ByLayer
 62
  256
370
   -1
100
AcDbLine
 10
0.823484911683376
 20
6.553749780061096
 11
0.1334849116833707
 21
6.553749780061096
  0
LINE
  5
1A1
100
AcDbEntity
  8
0
  6
ByLayer
 62
  256
370
   -1
100
AcDbLine
 10
0.1334849116833707
 20
6.553749780061096
 11
0.1334849116833707
 21
6.6717497800611
  0
LINE
  5
1A2
100
AcDbEntity
  8
0
  6
ByLayer
 62
  256
370
   -1
100
AcDbLine
 10
0.1334849116833707
 20
6.6717497800611
 11
-0.5565150883166234
 21
6.6717497800611
  0
LINE
  5
1A3
100
AcDbEntity
  8
0
  6
ByLayer
 62
  256
370
   -1
100
AcDbLine
 10
-0.5565150883166234
 20
6.6717497800611
 11
-0.5565150883166234
 21
6.553749780061096
  0
LINE
  5
1A4
100
AcDbEntity
  8
0
  6
ByLayer
 62
  256
370
   -1
100
AcDbLine
 10
-0.5565150883166234
 20
6.553749780061096
 11
-0.7035150883166184
 21
6.553749780061096
  0
LINE
  5
1A5
100
AcDbEntity
  8
0
  6
ByLayer
 62
  256
370
   -1
100
AcDbLine
 10
-0.7035150883166184
 20
6.553749780061096
 11
-0.7035150883166184
 21
5.896749780061095
  0
LINE
  5
1A6
100
AcDbEntity
  8
0
  6
ByLayer
 62
  256
370
   -1
100
AcDbLine
 10
-0.7035150883166184
 20
5.896749780061095
 11
-0.821515088316624
 21
5.896749780061095
  0
LINE
  5
1A7
100
AcDbEntity
  8
0
  6
ByLayer
 62
  256
370
   -1
100
AcDbLine
 10
-0.821515088316624
 20
5.896749780061095
 11
-0.821515088316624
 21
5.206749780061099
  0
LINE
  5
1A8
100
AcDbEntity
  8
0
  6
ByLayer
 62
  256
370
   -1
100
AcDbLine
 10
-0.821515088316624
 20
5.206749780061099
 11
-0.7035150883166184
 21
5.206749780061099
  0
LINE
  5
1A9
100
AcDbEntity
  8
0
  6
ByLayer
 62
  256
370
   -1
100
AcDbLine
 10
-0.7035150883166184
 20
5.206749780061099
 11
-0.7035150883166184
 21
4.516749780061096
  0
LINE
  5
1AA
100
AcDbEntity
  8
0
  6
ByLayer
 62
  256
370
   -1
100
AcDbLine
 10
-0.7035150883166184
 20
4.516749780061096
 11
-0.821515088316624
 21
4.516749780061096
  0
LINE
  5
1AB
100
AcDbEntity
  8
0
  6
ByLayer
 62
  256
370
   -1
100
AcDbLine
 10
-0.821515088316624
 20
4.516749780061096
 11
-0.821515088316624
 21
3.826749780061096
  0
LINE
  5
1AC
100
AcDbEntity
  8
0
  6
ByLayer
 62
  256
370
   -1
100
AcDbLine
 10
-0.821515088316624
 20
3.826749780061096
 11
-0.7035150883166184
 21
3.826749780061096
  0
LINE
  5
1AD
100
AcDbEntity
  8
0
  6
ByLayer
 62
  256
370
   -1
100
AcDbLine
 10
-0.7035150883166184
 20
3.826749780061096
 11
-0.7035150883166184
 21
3.136749780061096
  0
LINE
  5
1AE
100
AcDbEntity
  8
0
  6
ByLayer
 62
  256
370
   -1
100
AcDbLine
 10
-0.7035150883166184
 20
3.136749780061096
 11
-0.821515088316624
 21
3.136749780061096
  0
LINE
  5
1AF
100
AcDbEntity
  8
0
  6
ByLayer
 62
  256
370
   -1
100
AcDbLine
 10
-0.821515088316624
 20
3.136749780061096
 11
-0.821515088316624
 21
2.446749780061096
  0
LINE
  5
1B0
100
AcDbEntity
  8
0
  6
ByLayer
 62
  256
370
   -1
100
AcDbLine
 10
-0.821515088316624
 20
2.446749780061096
 11
-0.7035150883166184
 21
2.446749780061096
  0
LINE
  5
1B1
100
AcDbEntity
  8
0
  6
ByLayer
 62
  256
370
   -1
100
AcDbLine
 10
-0.7035150883166184
 20
2.446749780061096
 11
-0.7035150883166184
 21
1.789749780061097
  0
LINE
  5
1B2
100
AcDbEntity
  8
0
  6
ByLayer
 62
  256
370
   -1
100
AcDbLine
 10
-0.7035150883166184
 20
1.789749780061097
 11
-0.5565150883166234
 21
1.789749780061097
  0
LINE
  5
1B3
100
AcDbEntity
  8
0
  6
ByLayer
 62
  256
370
   -1
100
AcDbLine
 10
-0.5565150883166234
 20
1.789749780061097
 11
-0.5565150883166234
 21
1.671749780061097
  0
LINE
  5
1B4
100
AcDbEntity
  8
0
  6
ByLayer
 62
  256
370
   -1
100
AcDbLine
 10
-0.5565150883166234
 20
1.671749780061097
 11
0.1334849116833707
 21
1.671749780061097
  0
LINE
  5
1B5
100
AcDbEntity
  8
0
  6
ByLayer
 62
  256
370
   -1
100
AcDbLine
 10
0.1334849116833707
 20
1.671749780061097
 11
0.1334849116833707
 21
1.789749780061097
  0
LINE
  5
1B6
100
AcDbEntity
  8
0
  6
ByLayer
 62
  256
370
   -1
100
AcDbLine
 10
0.1334849116833707
 20
1.789749780061097
 11
0.823484911683376
 21
1.789749780061097
  0
LINE
  5
1B7
100
AcDbEntity
  8
0
  6
ByLayer
 62
  256
370
   -1
100
AcDbLine
 10
0.823484911683376
 20
1.789749780061097
 11
0.823484911683376
 21
1.671749780061097
  0
LINE
  5
1B8
100
AcDbEntity
  8
0
  6
ByLayer
 62
  256
370
   -1
100
AcDbLine
 10
0.823484911683376
 20
1.671749780061097
 11
1.51348491168337
 21
1.671749780061097
  0
LINE
  5
1B9
100
AcDbEntity
  8
0
  6
ByLayer
 62
  256
370
   -1
100
AcDbLine
 10
1.51348491168337
 20
1.671749780061097
 11
1.51348491168337
 21
1.789749780061097
  0
LINE
  5
1BA
100
AcDbEntity
  8
0
  6
ByLayer
 62
  256
370
   -1
100
AcDbLine
 10
1.51348491168337
 20
1.789749780061097
 11
2.203484911683376
 21
1.789749780061097
  0
LINE
  5
1BB
100
AcDbEntity
  8
0
  6
ByLayer
 62
  256
370
   -1
100
AcDbLine
 10
2.203484911683376
 20
1.789749780061097
 11
2.203484911683376
 21
1.671749780061097
  0
LINE
  5
1BC
100
AcDbEntity
  8
0
  6
ByLayer
 62
  256
370
   -1
100
AcDbLine
 10
2.203484911683376
 20
1.671749780061097
 11
2.89348491168337
 21
1.671749780061097
  0
LINE
  5
1BD
100
AcDbEntity
  8
0
  6
ByLayer
 62
  256
370
   -1
100
AcDbLine
 10
2.89348491168337
 20
1.671749780061097
 11
2.89348491168337
 21
1.789749780061097
  0
LINE
  5
1BE
100
AcDbEntity
  8
0
  6
ByLayer
 62
  256
370
   -1
100
AcDbLine
 10
2.89348491168337
 20
1.789749780061097
 11
3.583484911683376
 21
1.789749780061097
  0
LINE
  5
1BF
100
AcDbEntity
  8
0
  6
ByLayer
 62
  256
370
   -1
100
AcDbLine
 10
3.583484911683376
 20
1.789749780061097
 11
3.583484911683376
 21
1.671749780061097
  0
LINE
  5
1C0
100
AcDbEntity
  8
0
  6
ByLayer
 62
  256
370
   -1
100
AcDbLine
 10
3.583484911683376
 20
1.671749780061097
 11
4.273484911683381
 21
1.671749780061097
  0
LINE
  5
1C1
100
AcDbEntity
  8
0
  6
ByLayer
 62
  256
370
   -1
100
AcDbLine
 10
4.273484911683381
 20
1.671749780061097
 11
4.273484911683381
 21
1.789749780061097
  0
LINE
  5
1C2
100
AcDbEntity
  8
0
  6
ByLayer
 62
  256
370
   -1
100
AcDbLine
 10
4.273484911683381
 20
1.789749780061097
 11
4.963484911683375
 21
1.789749780061097
  0
LINE
  5
1C3
100
AcDbEntity
  8
0
  6
ByLayer
 62
  256
370
   -1
100
AcDbLine
 10
4.963484911683375
 20
1.789749780061097
 11
4.963484911683375
 21
1.671749780061097
  0
LINE
  5
1C4
100
AcDbEntity
  8
0
  6
ByLayer
 62
  256
370
   -1
100
AcDbLine
 10
4.963484911683375
 20
1.671749780061097
 11
5.653484911683369
 21
1.671749780061097
  0
LINE
  5
1C5
100
AcDbEntity
  8
0
  6
ByLayer
 62
  256
370
   -1
100
AcDbLine
 10
5.653484911683369
 20
1.671749780061097
 11
5.653484911683369
 21
1.789749780061097
  0
LINE
  5
1C6
100
AcDbEntity
  8
0
  6
ByLayer
 62
  256
370
   -1
100
AcDbLine
 10
5.653484911683369
 20
1.789749780061097
 11
6.343484911683376
 21
1.789749780061097
  0
LINE
  5
1C7
100
AcDbEntity
  8
0
  6
ByLayer
 62
  256
370
   -1
100
AcDbLine
 10
6.343484911683376
 20
1.789749780061097
 11
6.343484911683376
 21
1.671749780061097
  0
LINE
  5
1C8
100
AcDbEntity
  8
0
  6
ByLayer
 62
  256
370
   -1
100
AcDbLine
 10
6.343484911683376
 20
1.671749780061097
 11
7.033484911683381
 21
1.671749780061097
  0
LINE
  5
1C9
100
AcDbEntity
  8
0
  6
ByLayer
 62
  256
370
   -1
100
AcDbLine
 10
7.033484911683381
 20
1.671749780061097
 11
7.033484911683381
 21
1.789749780061097
  0
LINE
  5
1CA
100
AcDbEntity
  8
0
  6
ByLayer
 62
  256
370
   -1
100
AcDbLine
 10
7.033484911683381
 20
1.789749780061097
 11
7.723484911683375
 21
1.789749780061097
  0
LINE
  5
1CB
100
AcDbEntity
  8
0
  6
ByLayer
 62
  256
370
   -1
100
AcDbLine
 10
7.723484911683375
 20
1.789749780061097
 11
7.723484911683375
 21
1.671749780061097
  0
LINE
  5
1CC
100
AcDbEntity
  8
0
  6
ByLayer
 62
  256
370
   -1
100
AcDbLine
 10
7.723484911683375
 20
1.671749780061097
 11
8.413484911683382
 21
1.671749780061097
  0
LINE
  5
1CD
100
AcDbEntity
  8
0
  6
ByLayer
 62
  256
370
   -1
100
AcDbLine
 10
8.413484911683382
 20
1.671749780061097
 11
8.413484911683382
 21
1.789749780061097
  0
LINE
  5
1CE
100
AcDbEntity
  8
0
  6
ByLayer
 62
  256
370
   -1
100
AcDbLine
 10
8.413484911683382
 20
1.789749780061097
 11
8.560484911683377
 21
1.789749780061097
  0
LINE
  5
1CF
100
AcDbEntity
  8
0
  6
ByLayer
 62
  256
370
   -1
100
AcDbLine
 10
8.560484911683377
 20
1.789749780061097
 11
8.560484911683377
 21
2.446749780061096
  0
LINE
  5
1D0
100
AcDbEntity
  8
0
  6
ByLayer
 62
  256
370
   -1
100
AcDbLine
 10
8.560484911683377
 20
2.446749780061096
 11
8.67848491168337
 21
2.446749780061096
  0
LINE
  5
1D1
100
AcDbEntity
  8
0
  6
ByLayer
 62
  256
370
   -1
100
AcDbLine
 10
8.67848491168337
 20
2.446749780061096
 11
8.67848491168337
 21
3.136749780061096
  0
LINE
  5
1D2
100
AcDbEntity
  8
0
  6
ByLayer
 62
  256
370
   -1
100
AcDbLine
 10
8.67848491168337
 20
3.136749780061096
 11
8.560484911683377
 21
3.136749780061096
  0
LINE
  5
1D3
100
AcDbEntity
  8
0
  6
ByLayer
 62
  256
370
   -1
100
AcDbLine
 10
8.560484911683377
 20
3.136749780061096
 11
8.560484911683377
 21
3.826749780061096
  0
LINE
  5
1D4
100
AcDbEntity
  8
0
  6
ByLayer
 62
  256
370
   -1
100
AcDbLine
 10
8.560484911683377
 20
3.826749780061096
 11
8.67848491168337
 21
3.826749780061096
  0
LINE
  5
1D5
100
AcDbEntity
  8
0
  6
ByLayer
 62
  256
370
   -1
100
AcDbLine
 10
8.67848491168337
 20
3.826749780061096
 11
8.67848491168337
 21
4.516749780061096
  0
LINE
  5
1D6
100
AcDbEntity
  8
0
  6
ByLayer
 62
  256
370
   -1
100
AcDbLine
 10
8.67848491168337
 20
4.516749780061096
 11
8.560484911683377
 21
4.516749780061096
  0
LINE
  5
1D7
100
AcDbEntity
  8
0
  6
ByLayer
 62
  256
370
   -1
100
AcDbLine
 10
8.560484911683377
 20
4.516749780061096
 11
8.560484911683377
 21
5.206749780061099
  0
LINE
  5
1D8
100
AcDbEntity
  8
0
  6
ByLayer
 62
  256
370
   -1
100
AcDbLine
 10
8.560484911683377
 20
5.206749780061099
 11
8.67848491168337
 21
5.206749780061099
  0
LINE
  5
1D9
100
AcDbEntity
  8
0
  6
ByLayer
 62
  256
370
   -1
100
AcDbLine
 10
8.67848491168337
 20
5.206749780061099
 11
8.67848491168337
 21
5.896749780061095
  0
LINE
  5
1DA
100
AcDbEntity
  8
0
  6
ByLayer
 62
  256
370
   -1
100
AcDbLine
 10
8.67848491168337
 20
5.896749780061095
 11
8.560484911683377
 21
5.896749780061095
  0
LINE
  5
1DB
100
AcDbEntity
  8
0
  6
ByLayer
 62
  256
370
   -1
100
AcDbLine
 10
8.560484911683377
 20
5.896749780061095
 11
8.560484911683377
 21
6.553749780061096
  0
LINE
  5
1DC
100
AcDbEntity
  8
0
  6
ByLayer
 62
  256
370
   -1
100
AcDbLine
 10
8.560484911683377
 20
6.553749780061096
 11
8.413484911683382
 21
6.553749780061096
  0
LINE
  5
1DD
100
AcDbEntity
  8
0
  6
ByLayer
 62
  256
370
   -1
100
AcDbLine
 10
8.413484911683382
 20
6.553749780061096
 11
8.413484911683382
 21
6.6717497800611
  0
CIRCLE
  5
1DE
100
AcDbEntity
  8
0
  6
ByLayer
 62
  256
370
   -1
100
AcDbCircle
 10
6.753813643629492
 20
-2.439383611954795
 40
0.094
  0
CIRCLE
  5
1DF
100
AcDbEntity
  8
0
  6
ByLayer
 62
  256
370
   -1
100
AcDbCircle
 10
6.753813643629492
 20
0.6856163880452053
 40
0.094
  0
CIRCLE
  5
1E0
100
AcDbEntity
  8
0
  6
CONTINUOUS
 62
    7
370
   -1
100
AcDbCircle
 10
0.002914173476366244
 20
-1.670542714973793
 40
0.0624999999999999
  0
CIRCLE
  5
1E1
100
AcDbEntity
  8
0
  6
CONTINUOUS
 62
    7
370
   -1
100
AcDbCircle
 10
0.6029141734763641
 20
0.3294572850262067
 40
0.0624999999999998
  0
CIRCLE
  5
1E2
100
AcDbEntity
  8
0
  6
CONTINUOUS
 62
    7
370
   -1
100
AcDbCircle
 10
1.702914173476366
 20
0.3294572850262067
 40
0.0624999999999998
  0
CIRCLE
  5
1E3
100
AcDbEntity
  8
0
  6
CONTINUOUS
 62
    7
370
   -1
100
AcDbCircle
 10
1.902914173476365
 20
-1.721723816973793
 40
0.0625
  0
CIRCLE
  5
1E4
100
AcDbEntity
  8
DIM
  6
CONTINUOUS
 62
  256
370
   -1
100
AcDbCircle
 10
1.902914173476365
 20
0.2282761857262061
 40
0.0100000000000001
  0
CIRCLE
  5
1E5
100
AcDbEntity
  8
DIM
  6
CONTINUOUS
 62
  256
370
   -1
100
AcDbCircle
 10
1.902914173476365
 20
0.1282761857262065
 40
0.0100000000000001
  0
CIRCLE
  5
1E6
100
AcDbEntity
  8
DIM
  6
CONTINUOUS
 62
  256
370
   -1
100
AcDbCircle
 10
1.902914173476365
 20
0.02827618572620683
 40
0.0100000000000001
  0
CIRCLE
  5
1E7
100
AcDbEntity
  8
DIM
  6
CONTINUOUS
 62
  256
370
   -1
100
AcDbCircle
 10
1.902914173476365
 20
-0.07172381427379371
 40
0.0100000000000001
  0
CIRCLE
  5
1E8
100
AcDbEntity
  8
DIM
  6
CONTINUOUS
 62
  256
370
   -1
100
AcDbCircle
 10
1.902914173476365
 20
-0.1717238142737934
 40
0.0100000000000001
  0
CIRCLE
  5
1E9
100
AcDbEntity
  8
DIM
  6
CONTINUOUS
 62
  256
370
   -1
100
AcDbCircle
 10
1.902914173476365
 20
-0.2717238142737939
 40
0.0100000000000001
  0
CIRCLE
  5
1EA
100
AcDbEntity
  8
DIM
  6
CONTINUOUS
 62
  256
370
   -1
100
AcDbCircle
 10
1.902914173476365
 20
-0.4717238142737932
 40
0.0099999999999999
  0
CIRCLE
  5
1EB
100
AcDbEntity
  8
DIM
  6
CONTINUOUS
 62
  256
370
   -1
100
AcDbCircle
 10
1.902914173476365
 20
-0.5717238142737933
 40
0.009999999999999599
  0
CIRCLE
  5
1EC
100
AcDbEntity
  8
DIM
  6
CONTINUOUS
 62
  256
370
   -1
100
AcDbCircle
 10
1.902914173476365
 20
-0.6717238142737934
 40
0.009999999999999599
  0
CIRCLE
  5
1ED
100
AcDbEntity
  8
DIM
  6
CONTINUOUS
 62
  256
370
   -1
100
AcDbCircle
 10
1.902914173476365
 20
-0.771723814273793
 40
0.009999999999999801
  0
CIRCLE
  5
1EE
100
AcDbEntity
  8
DIM
  6
CONTINUOUS
 62
  256
370
   -1
100
AcDbCircle
 10
1.902914173476365
 20
-0.8717238142737931
 40
0.009999999999999599
  0
CIRCLE
  5
1EF
100
AcDbEntity
  8
DIM
  6
CONTINUOUS
 62
  256
370
   -1
100
AcDbCircle
 10
1.902914173476365
 20
-0.9717238142737932
 40
0.009999999999999599
  0
CIRCLE
  5
1F0
100
AcDbEntity
  8
DIM
  6
CONTINUOUS
 62
  256
370
   -1
100
AcDbCircle
 10
1.902914173476365
 20
-1.071723814273793
 40
0.0099999999999994
  0
CIRCLE
  5
1F1
100
AcDbEntity
  8
DIM
  6
CONTINUOUS
 62
  256
370
   -1
100
AcDbCircle
 10
1.902914173476365
 20
-1.171723814273793
 40
0.0099999999999999
  0
CIRCLE
  5
1F2
100
AcDbEntity
  8
DIM
  6
CONTINUOUS
 62
  256
370
   -1
100
AcDbCircle
 10
0.002914173476366244
 20
0.2282761857262061
 40
0.0099999999999997
  0
CIRCLE
  5
1F3
100
AcDbEntity
  8
DIM
  6
CONTINUOUS
 62
  256
370
   -1
100
AcDbCircle
 10
0.002914173476366244
 20
0.1282761857262065
 40
0.009999999999999201
  0
CIRCLE
  5
1F4
100
AcDbEntity
  8
DIM
  6
CONTINUOUS
 62
  256
370
   -1
100
AcDbCircle
 10
0.002914173476366244
 20
0.02827618572620727
 40
0.0099999999999991
  0
CIRCLE
  5
1F5
100
AcDbEntity
  8
DIM
  6
CONTINUOUS
 62
  256
370
   -1
100
AcDbCircle
 10
0.002914173476366244
 20
-0.07172381427379326
 40
0.009999999999999599
  0
CIRCLE
  5
1F6
100
AcDbEntity
  8
DIM
  6
CONTINUOUS
 62
  256
370
   -1
100
AcDbCircle
 10
0.002914173476366244
 20
-0.1717238142737929
 40
0.0099999999999991
  0
CIRCLE
  5
1F7
100
AcDbEntity
  8
DIM
  6
CONTINUOUS
 62
  256
370
   -1
100
AcDbCircle
 10
0.002914173476366244
 20
-0.2717238142737934
 40
0.009999999999999201
  0
CIRCLE
  5
1F8
100
AcDbEntity
  8
DIM
  6
CONTINUOUS
 62
  256
370
   -1
100
AcDbCircle
 10
0.002914173476366244
 20
-0.3717238142737931
 40
0.0099999999999994
  0
CIRCLE
  5
1F9
100
AcDbEntity
  8
DIM
  6
CONTINUOUS
 62
  256
370
   -1
100
AcDbCircle
 10
0.002914173476366244
 20
-0.4717238142737932
 40
0.009999999999999599
  0
CIRCLE
  5
1FA
100
AcDbEntity
  8
DIM
  6
CONTINUOUS
 62
  256
370
   -1
100
AcDbCircle
 10
0.002914173476366244
 20
-0.6305427142737932
 40
0.0099999999999999
  0
CIRCLE
  5
1FB
100
AcDbEntity
  8
DIM
  6
CONTINUOUS
 62
  256
370
   -1
100
AcDbCircle
 10
0.002914173476366244
 20
-0.7305427142737932
 40
0.0099999999999999
  0
CIRCLE
  5
1FC
100
AcDbEntity
  8
DIM
  6
CONTINUOUS
 62
  256
370
   -1
100
AcDbCircle
 10
0.002914173476366244
 20
-0.8305427142737933
 40
0.009999999999999501
  0
CIRCLE
  5
1FD
100
AcDbEntity
  8
DIM
  6
CONTINUOUS
 62
  256
370
   -1
100
AcDbCircle
 10
0.002914173476366244
 20
-0.930542714273793
 40
0.0099999999999999
  0
CIRCLE
  5
1FE
100
AcDbEntity
  8
DIM
  6
CONTINUOUS
 62
  256
370
   -1
100
AcDbCircle
 10
0.002914173476366244
 20
-1.030542714273793
 40
0.009999999999999501
  0
CIRCLE
  5
1FF
100
AcDbEntity
  8
DIM
  6
CONTINUOUS
 62
  256
370
   -1
100
AcDbCircle
 10
0.002914173476366244
 20
-1.130542714273793
 40
0.0099999999999997
  0
CIRCLE
  5
200
100
AcDbEntity
  8
DIM
  6
CONTINUOUS
 62
  256
370
   -1
100
AcDbCircle
 10
0.002914173476366244
 20
-1.230542714273793
 40
0.009999999999999599
  0
CIRCLE
  5
201
100
AcDbEntity
  8
DIM
  6
CONTINUOUS
 62
  256
370
   -1
100
AcDbCircle
 10
0.002914173476366244
 20
-1.330542714273793
 40
0.009999999999999299
  0
CIRCLE
  5
202
100
AcDbEntity
  8
DIM
  6
CONTINUOUS
 62
  256
370
   -1
100
AcDbCircle
 10
0.002914173476366244
 20
-1.430542714273793
 40
0.009999999999999501
  0
CIRCLE
  5
203
100
AcDbEntity
  8
DIM
  6
CONTINUOUS
 62
  256
370
   -1
100
AcDbCircle
 10
0.002914173476366244
 20
-1.530542714273793
 40
0.009999999999999501
  0
LINE
  5
204
100
AcDbEntity
  8
DIM
  6
CONTINUOUS
 62
  256
370
   -1
100
AcDbLine
 10
0.5129141734763643
 20
0.4270950802262066
 11
1.802914173476367
 21
0.4270950802262066
  0
LINE
  5
205
100
AcDbEntity
  8
DIM
  6
CONTINUOUS
 62
  256
370
   -1
100
AcDbLine
 10
2.002914173476366
 20
0.3294572850262067
 11
2.002914173476366
 21
-2.271723817373793
  0
LINE
  5
206
100
AcDbEntity
  8
DIM
  6
CONTINUOUS
 62
  256
370
   -1
100
AcDbLine
 10
-0.03699451762363637
 20
0.3294572850262067
 11
0.4129141734763664
 21
0.3294572850262067
  0
LINE
  5
207
100
AcDbEntity
  8
DIM
  6
CONTINUOUS
 62
  256
370
   -1
100
AcDbLine
 10
2.002914173476366
 20
0.3294572850262067
 11
1.902914173476365
 21
0.3294572850262067
  0
LINE
  5
208
100
AcDbEntity
  8
DIM
  6
CONTINUOUS
 62
  256
370
   -1
100
AcDbLine
 10
0.4129141734763664
 20
0.3294572850262067
 11
0.5129141734763643
 21
0.4270950802262066
  0
LINE
  5
209
100
AcDbEntity
  8
DIM
  6
CONTINUOUS
 62
  256
370
   -1
100
AcDbLine
 10
1.802914173476367
 20
0.4270950802262066
 11
1.902914173476365
 21
0.3294572850262067
  0
LINE
  5
20A
100
AcDbEntity
  8
DIM
  6
CONTINUOUS
 62
  256
370
   -1
100
AcDbLine
 10
2.002914173476366
 20
-2.271723817373793
 11
-0.0986005157236356
 21
-2.271723817373793
  0
LINE
  5
20B
100
AcDbEntity
  8
DIM
  6
CONTINUOUS
 62
  256
370
   -1
100
AcDbLine
 10
-0.0986005157236356
 20
0.2678512868262066
 11
-0.0986005157236356
 21
-2.271723817373793
  0
LINE
  5
20C
100
AcDbEntity
  8
DIM
  6
CONTINUOUS
 62
  256
370
   -1
100
AcDbLine
 10
-0.03699451762363637
 20
0.3294572850262067
 11
-0.0986005157236356
 21
0.2678512868262066
  0
LINE
  5
20D
100
AcDbEntity
  8
DIM
  6
ByLayer
 62
  256
370
   -1
100
AcDbLine
 10
6.753813643629492
 20
-2.439383611954795
 11
6.753813643629492
 21
0.6856163880452053
  0
LINE
  5
20E
100
AcDbEntity
  8
DIM
  6
ByLayer
 62
  256
370
   -1
100
AcDbLine
 10
7.253813643629492
 20
-0.8768836119547947
 11
6.253813643629492
 21
-0.8768836119547947
  0
LINE
  5
20F
100
AcDbEntity
  8
DIM
  6
ByLayer
 62
  256
370
   -1
100
AcDbLine
 10
7.253813643629492
 20
-2.783883611954795
 11
6.253813643629492
 21
-2.783883611954795
  0
LINE
  5
210
100
AcDbEntity
  8
DIM
  6
ByLayer
 62
  256
370
   -1
100
AcDbLine
 10
7.253813643629492
 20
1.030116388045205
 11
6.253813643629492
 21
1.030116388045205
  0
LINE
  5
211
100
AcDbEntity
  8
DIM
  6
ByLayer
 62
  256
370
   -1
100
AcDbLine
 10
7.878813643629492
 20
-2.439383611954795
 11
7.878813643629492
 21
0.6856163880452053
  0
LINE
  5
212
100
AcDbEntity
  8
DIM
  6
ByLayer
 62
  256
370
   -1
100
AcDbLine
 10
5.628813643629492
 20
-2.439383611954795
 11
5.628813643629492
 21
0.6856163880452053
  0
CIRCLE
  5
213
100
AcDbEntity
  8
0
  6
ByLayer
 62
  256
370
   -1
100
AcDbCircle
 10
-5.590356473286209
 20
-2.910972530219148
 40
0.089
  0
CIRCLE
  5
214
100
AcDbEntity
  8
0
  6
ByLayer
 62
  256
370
   -1
100
AcDbCircle
 10
-5.590356473286209
 20
-1.335972530219149
 40
0.089
  0
LINE
  5
215
100
AcDbEntity
  8
DIM
  6
ByLayer
 62
  256
370
   -1
100
AcDbLine
 10
-4.665356473286209
 20
-1.576472530219146
 11
-6.51535647328621
 21
-1.576472530219146
  0
LINE
  5
216
100
AcDbEntity
  8
DIM
  6
ByLayer
 62
  256
370
   -1
100
AcDbLine
 10
-4.665356473286209
 20
-2.670472530219147
 11
-6.51535647328621
 21
-2.670472530219147
  0
LINE
  5
217
100
AcDbEntity
  8
DIM
  6
ByLayer
 62
  256
370
   -1
100
AcDbLine
 10
-6.51535647328621
 20
-2.670472530219147
 11
-6.51535647328621
 21
-1.576472530219146
  0
LINE
  5
218
100
AcDbEntity
  8
DIM
  6
ByLayer
 62
  256
370
   -1
100
AcDbLine
 10
-4.665356473286209
 20
-2.670472530219147
 11
-4.665356473286209
 21
-1.576472530219146
  0
CIRCLE
  5
219
100
AcDbEntity
  8
0
  6
ByLayer
 62
  256
370
   -1
100
AcDbCircle
 10
3.159740267444948
 20
-0.1193991374415476
 40
0.06
  0
CIRCLE
  5
21A
100
AcDbEntity
  8
0
  6
ByLayer
 62
  256
370
   -1
100
AcDbCircle
 10
4.659740267444948
 20
-0.1193991374415476
 40
0.06
  0
LINE
  5
21B
100
AcDbEntity
  8
DIM
  6
ByLayer
 62
  256
370
   -1
100
AcDbLine
 10
4.909740267444948
 20
-1.069399137441549
 11
4.909740267444948
 21
0.8306008625584517
  0
LINE
  5
21C
100
AcDbEntity
  8
DIM
  6
ByLayer
 62
  256
370
   -1
100
AcDbLine
 10
2.909740267444948
 20
-1.069399137441549
 11
2.909740267444948
 21
0.8306008625584517
  0
LINE
  5
21D
100
AcDbEntity
  8
DIM
  6
ByLayer
 62
  256
370
   -1
100
AcDbLine
 10
2.909740267444948
 20
0.8306008625584517
 11
4.909740267444948
 21
0.8306008625584517
  0
LINE
  5
21E
100
AcDbEntity
  8
DIM
  6
ByLayer
 62
  256
370
   -1
100
AcDbLine
 10
4.909740267444948
 20
-1.069399137441549
 11
2.909740267444948
 21
-1.069399137441549
  0
ENDSEC
  0
SECTION
  2
OBJECTS
  0
DICTIONARY
  5
C
330
0
100
AcDbDictionary
281
    1
  3
ACAD_GROUP
350
D
  0
DICTIONARY
  5
D
330
C
100
AcDbDictionary
281
    1
  0
PLOTSETTINGS
  5
21F
100
AcDbPlotSettings
  6
1x1
 40
0
 41
0
 42
0
 43
0
  0
ENDSEC
  0
EOF
